ISO-10303-21;
HEADER;
/* Generated by software containing ST-Developer
 * from STEP Tools, Inc. (www.steptools.com) 
 */
/* OPTION: using custom renumber hook */

FILE_DESCRIPTION(
/* description */ ('STEP AP203'),
/* implementation_level */ '2;1');

FILE_NAME(
/* name */ 'Hex nut DIN 555 M30',
/* time_stamp */ '2025-02-20T12:33:30+01:00',
/* author */ ('License CC BY-ND 4.0'),
/* organization */ ('CADENAS'),
/* preprocessor_version */ 'ST-DEVELOPER v19.3',
/* originating_system */ 'PARTsolutions',
/* authorisation */ '  ');

FILE_SCHEMA (('CONFIG_CONTROL_DESIGN'));
ENDSEC;

DATA;
#10=PROPERTY_DEFINITION_REPRESENTATION(#14,#12);
#11=PROPERTY_DEFINITION_REPRESENTATION(#15,#13);
#12=REPRESENTATION('',(#16),#425);
#13=REPRESENTATION('',(#17),#425);
#14=PROPERTY_DEFINITION('pmi validation property','',#430);
#15=PROPERTY_DEFINITION('pmi validation property','',#430);
#16=VALUE_REPRESENTATION_ITEM('number of annotations',COUNT_MEASURE(0.));
#17=VALUE_REPRESENTATION_ITEM('number of views',COUNT_MEASURE(0.));
#18=SHAPE_REPRESENTATION_RELATIONSHIP('','',#217,#19);
#19=ADVANCED_BREP_SHAPE_REPRESENTATION('',(#215),#425);
#20=LINE('',#413,#26);
#21=LINE('',#414,#27);
#22=LINE('',#416,#28);
#23=LINE('',#418,#29);
#24=LINE('',#420,#30);
#25=LINE('',#422,#31);
#26=VECTOR('',#268,1000.);
#27=VECTOR('',#269,1000.);
#28=VECTOR('',#272,1000.);
#29=VECTOR('',#275,1000.);
#30=VECTOR('',#278,1000.);
#31=VECTOR('',#281,1000.);
#32=CYLINDRICAL_SURFACE('',#229,13.1055);
#33=B_SPLINE_CURVE_WITH_KNOTS('',3,(#291,#292,#293,#294,#295,#296,#297,
#298),.UNSPECIFIED.,.F.,.F.,(4,1,1,1,1,4),(2.38072774767768E-7,0.00670579098490321,
0.0134113438970316,0.0167641203530959,0.0201168968091601,0.0268224497212885),
 .UNSPECIFIED.);
#34=B_SPLINE_CURVE_WITH_KNOTS('',3,(#301,#302,#303,#304,#305,#306,#307,
#308),.UNSPECIFIED.,.F.,.F.,(4,1,1,1,1,4),(2.38072774769757E-7,0.00670579098490321,
0.0134113438970316,0.0167641203530959,0.0201168968091601,0.0268224497212885),
 .UNSPECIFIED.);
#35=B_SPLINE_CURVE_WITH_KNOTS('',3,(#310,#311,#312,#313,#314,#315,#316,
#317),.UNSPECIFIED.,.F.,.F.,(4,1,1,1,1,4),(0.0291748344678988,0.035928213578735,
0.0426815926895712,0.0460582822449893,0.0494349718004074,0.0561883509112436),
 .UNSPECIFIED.);
#36=B_SPLINE_CURVE_WITH_KNOTS('',3,(#319,#320,#321,#322,#323,#324,#325,
#326),.UNSPECIFIED.,.F.,.F.,(4,1,1,1,1,4),(2.38072774767768E-7,0.00670579098490321,
0.0134113438970316,0.0167641203530959,0.0201168968091601,0.0268224497212885),
 .UNSPECIFIED.);
#37=B_SPLINE_CURVE_WITH_KNOTS('',3,(#328,#329,#330,#331,#332,#333,#334,
#335),.UNSPECIFIED.,.F.,.F.,(4,1,1,1,1,4),(2.38072774769757E-7,0.00670579098490321,
0.0134113438970316,0.0167641203530959,0.0201168968091601,0.0268224497212885),
 .UNSPECIFIED.);
#38=B_SPLINE_CURVE_WITH_KNOTS('',3,(#337,#338,#339,#340,#341,#342,#343,
#344),.UNSPECIFIED.,.F.,.F.,(4,1,1,1,1,4),(0.0291748344678988,0.035928213578735,
0.0426815926895712,0.0460582822449893,0.0494349718004074,0.0561883509112436),
 .UNSPECIFIED.);
#39=B_SPLINE_CURVE_WITH_KNOTS('',3,(#348,#349,#350,#351,#352,#353,#354,
#355),.UNSPECIFIED.,.F.,.F.,(4,1,1,1,1,4),(2.38072774771439E-7,0.00670579098490321,
0.0134113438970316,0.0167641203530959,0.0201168968091601,0.0268224497212885),
 .UNSPECIFIED.);
#40=B_SPLINE_CURVE_WITH_KNOTS('',3,(#358,#359,#360,#361,#362,#363,#364,
#365),.UNSPECIFIED.,.F.,.F.,(4,1,1,1,1,4),(0.0291748344678988,0.035928213578735,
0.0426815926895712,0.0460582822449893,0.0494349718004074,0.0561883509112436),
 .UNSPECIFIED.);
#41=B_SPLINE_CURVE_WITH_KNOTS('',3,(#367,#368,#369,#370,#371,#372,#373,
#374),.UNSPECIFIED.,.F.,.F.,(4,1,1,1,1,4),(2.38072774767953E-7,0.00670579098490321,
0.0134113438970316,0.0167641203530959,0.0201168968091601,0.0268224497212885),
 .UNSPECIFIED.);
#42=B_SPLINE_CURVE_WITH_KNOTS('',3,(#376,#377,#378,#379,#380,#381,#382,
#383),.UNSPECIFIED.,.F.,.F.,(4,1,1,1,1,4),(2.38072774771031E-7,0.00670579098490321,
0.0134113438970316,0.0167641203530959,0.0201168968091601,0.0268224497212885),
 .UNSPECIFIED.);
#43=B_SPLINE_CURVE_WITH_KNOTS('',3,(#385,#386,#387,#388,#389,#390,#391,
#392),.UNSPECIFIED.,.F.,.F.,(4,1,1,1,1,4),(0.0291748344678988,0.035928213578735,
0.0426815926895712,0.0460582822449893,0.0494349718004074,0.0561883509112436),
 .UNSPECIFIED.);
#44=B_SPLINE_CURVE_WITH_KNOTS('',3,(#394,#395,#396,#397,#398,#399,#400,
#401),.UNSPECIFIED.,.F.,.F.,(4,1,1,1,1,4),(2.38072774767953E-7,0.00670579098490321,
0.0134113438970316,0.0167641203530959,0.0201168968091601,0.0268224497212885),
 .UNSPECIFIED.);
#45=CONICAL_SURFACE('',#222,20.7,1.0471975511966);
#46=CONICAL_SURFACE('',#223,27.6,1.0471975511966);
#47=CONICAL_SURFACE('',#227,15.,0.785398163397448);
#48=CONICAL_SURFACE('',#231,13.1055,0.785398163397448);
#49=ORIENTED_EDGE('',*,*,#97,.F.);
#50=ORIENTED_EDGE('',*,*,#98,.T.);
#51=ORIENTED_EDGE('',*,*,#99,.T.);
#52=ORIENTED_EDGE('',*,*,#100,.T.);
#53=ORIENTED_EDGE('',*,*,#101,.T.);
#54=ORIENTED_EDGE('',*,*,#102,.T.);
#55=ORIENTED_EDGE('',*,*,#103,.T.);
#56=ORIENTED_EDGE('',*,*,#104,.T.);
#57=ORIENTED_EDGE('',*,*,#97,.T.);
#58=ORIENTED_EDGE('',*,*,#105,.F.);
#59=ORIENTED_EDGE('',*,*,#106,.T.);
#60=ORIENTED_EDGE('',*,*,#107,.T.);
#61=ORIENTED_EDGE('',*,*,#108,.T.);
#62=ORIENTED_EDGE('',*,*,#109,.T.);
#63=ORIENTED_EDGE('',*,*,#110,.T.);
#64=ORIENTED_EDGE('',*,*,#111,.T.);
#65=ORIENTED_EDGE('',*,*,#112,.F.);
#66=ORIENTED_EDGE('',*,*,#105,.T.);
#67=ORIENTED_EDGE('',*,*,#113,.T.);
#68=ORIENTED_EDGE('',*,*,#98,.F.);
#69=ORIENTED_EDGE('',*,*,#114,.T.);
#70=ORIENTED_EDGE('',*,*,#113,.F.);
#71=ORIENTED_EDGE('',*,*,#112,.T.);
#72=ORIENTED_EDGE('',*,*,#114,.F.);
#73=ORIENTED_EDGE('',*,*,#115,.F.);
#74=ORIENTED_EDGE('',*,*,#107,.F.);
#75=ORIENTED_EDGE('',*,*,#116,.T.);
#76=ORIENTED_EDGE('',*,*,#104,.F.);
#77=ORIENTED_EDGE('',*,*,#116,.F.);
#78=ORIENTED_EDGE('',*,*,#106,.F.);
#79=ORIENTED_EDGE('',*,*,#117,.T.);
#80=ORIENTED_EDGE('',*,*,#99,.F.);
#81=ORIENTED_EDGE('',*,*,#117,.F.);
#82=ORIENTED_EDGE('',*,*,#111,.F.);
#83=ORIENTED_EDGE('',*,*,#118,.T.);
#84=ORIENTED_EDGE('',*,*,#100,.F.);
#85=ORIENTED_EDGE('',*,*,#118,.F.);
#86=ORIENTED_EDGE('',*,*,#110,.F.);
#87=ORIENTED_EDGE('',*,*,#119,.T.);
#88=ORIENTED_EDGE('',*,*,#101,.F.);
#89=ORIENTED_EDGE('',*,*,#119,.F.);
#90=ORIENTED_EDGE('',*,*,#109,.F.);
#91=ORIENTED_EDGE('',*,*,#120,.T.);
#92=ORIENTED_EDGE('',*,*,#102,.F.);
#93=ORIENTED_EDGE('',*,*,#120,.F.);
#94=ORIENTED_EDGE('',*,*,#108,.F.);
#95=ORIENTED_EDGE('',*,*,#115,.T.);
#96=ORIENTED_EDGE('',*,*,#103,.F.);
#97=EDGE_CURVE('',#121,#121,#139,.T.);
#98=EDGE_CURVE('',#122,#122,#140,.T.);
#99=EDGE_CURVE('',#123,#124,#33,.T.);
#100=EDGE_CURVE('',#124,#125,#34,.T.);
#101=EDGE_CURVE('',#125,#126,#35,.T.);
#102=EDGE_CURVE('',#126,#127,#36,.T.);
#103=EDGE_CURVE('',#127,#128,#37,.T.);
#104=EDGE_CURVE('',#128,#123,#38,.T.);
#105=EDGE_CURVE('',#129,#129,#141,.T.);
#106=EDGE_CURVE('',#130,#131,#39,.T.);
#107=EDGE_CURVE('',#131,#132,#40,.T.);
#108=EDGE_CURVE('',#132,#133,#41,.T.);
#109=EDGE_CURVE('',#133,#134,#42,.T.);
#110=EDGE_CURVE('',#134,#135,#43,.T.);
#111=EDGE_CURVE('',#135,#130,#44,.T.);
#112=EDGE_CURVE('',#136,#136,#142,.T.);
#113=EDGE_CURVE('',#137,#137,#143,.T.);
#114=EDGE_CURVE('',#138,#138,#144,.T.);
#115=EDGE_CURVE('',#132,#128,#20,.T.);
#116=EDGE_CURVE('',#131,#123,#21,.T.);
#117=EDGE_CURVE('',#130,#124,#22,.T.);
#118=EDGE_CURVE('',#135,#125,#23,.T.);
#119=EDGE_CURVE('',#134,#126,#24,.T.);
#120=EDGE_CURVE('',#133,#127,#25,.T.);
#121=VERTEX_POINT('',#287);
#122=VERTEX_POINT('',#289);
#123=VERTEX_POINT('',#299);
#124=VERTEX_POINT('',#300);
#125=VERTEX_POINT('',#309);
#126=VERTEX_POINT('',#318);
#127=VERTEX_POINT('',#327);
#128=VERTEX_POINT('',#336);
#129=VERTEX_POINT('',#347);
#130=VERTEX_POINT('',#356);
#131=VERTEX_POINT('',#357);
#132=VERTEX_POINT('',#366);
#133=VERTEX_POINT('',#375);
#134=VERTEX_POINT('',#384);
#135=VERTEX_POINT('',#393);
#136=VERTEX_POINT('',#404);
#137=VERTEX_POINT('',#407);
#138=VERTEX_POINT('',#410);
#139=CIRCLE('',#220,20.7);
#140=CIRCLE('',#221,15.);
#141=CIRCLE('',#224,20.7);
#142=CIRCLE('',#226,15.);
#143=CIRCLE('',#228,13.1055);
#144=CIRCLE('',#230,13.1055);
#145=EDGE_LOOP('',(#49));
#146=EDGE_LOOP('',(#50));
#147=EDGE_LOOP('',(#51,#52,#53,#54,#55,#56));
#148=EDGE_LOOP('',(#57));
#149=EDGE_LOOP('',(#58));
#150=EDGE_LOOP('',(#59,#60,#61,#62,#63,#64));
#151=EDGE_LOOP('',(#65));
#152=EDGE_LOOP('',(#66));
#153=EDGE_LOOP('',(#67));
#154=EDGE_LOOP('',(#68));
#155=EDGE_LOOP('',(#69));
#156=EDGE_LOOP('',(#70));
#157=EDGE_LOOP('',(#71));
#158=EDGE_LOOP('',(#72));
#159=EDGE_LOOP('',(#73,#74,#75,#76));
#160=EDGE_LOOP('',(#77,#78,#79,#80));
#161=EDGE_LOOP('',(#81,#82,#83,#84));
#162=EDGE_LOOP('',(#85,#86,#87,#88));
#163=EDGE_LOOP('',(#89,#90,#91,#92));
#164=EDGE_LOOP('',(#93,#94,#95,#96));
#165=FACE_BOUND('',#145,.T.);
#166=FACE_BOUND('',#146,.T.);
#167=FACE_BOUND('',#147,.T.);
#168=FACE_BOUND('',#148,.T.);
#169=FACE_BOUND('',#149,.T.);
#170=FACE_BOUND('',#150,.T.);
#171=FACE_BOUND('',#151,.T.);
#172=FACE_BOUND('',#152,.T.);
#173=FACE_BOUND('',#153,.T.);
#174=FACE_BOUND('',#154,.T.);
#175=FACE_BOUND('',#155,.T.);
#176=FACE_BOUND('',#156,.T.);
#177=FACE_BOUND('',#157,.T.);
#178=FACE_BOUND('',#158,.T.);
#179=FACE_BOUND('',#159,.T.);
#180=FACE_BOUND('',#160,.T.);
#181=FACE_BOUND('',#161,.T.);
#182=FACE_BOUND('',#162,.T.);
#183=FACE_BOUND('',#163,.T.);
#184=FACE_BOUND('',#164,.T.);
#185=PLANE('',#219);
#186=PLANE('',#225);
#187=PLANE('',#232);
#188=PLANE('',#233);
#189=PLANE('',#234);
#190=PLANE('',#235);
#191=PLANE('',#236);
#192=PLANE('',#237);
#193=ADVANCED_FACE('',(#165,#166),#185,.F.);
#194=ADVANCED_FACE('',(#167,#168),#45,.T.);
#195=ADVANCED_FACE('',(#169,#170),#46,.T.);
#196=ADVANCED_FACE('',(#171,#172),#186,.F.);
#197=ADVANCED_FACE('',(#173,#174),#47,.F.);
#198=ADVANCED_FACE('',(#175,#176),#32,.F.);
#199=ADVANCED_FACE('',(#177,#178),#48,.F.);
#200=ADVANCED_FACE('',(#179),#187,.F.);
#201=ADVANCED_FACE('',(#180),#188,.F.);
#202=ADVANCED_FACE('',(#181),#189,.F.);
#203=ADVANCED_FACE('',(#182),#190,.F.);
#204=ADVANCED_FACE('',(#183),#191,.F.);
#205=ADVANCED_FACE('',(#184),#192,.F.);
#206=CLOSED_SHELL('',(#193,#194,#195,#196,#197,#198,#199,#200,#201,#202,
#203,#204,#205));
#207=STYLED_ITEM('',(#208),#215);
#208=PRESENTATION_STYLE_ASSIGNMENT((#209));
#209=SURFACE_STYLE_USAGE(.BOTH.,#210);
#210=SURFACE_SIDE_STYLE('',(#211));
#211=SURFACE_STYLE_FILL_AREA(#212);
#212=FILL_AREA_STYLE('',(#213));
#213=FILL_AREA_STYLE_COLOUR('',#214);
#214=COLOUR_RGB('',0.689999997615814,0.689999997615814,0.689999997615814);
#215=MANIFOLD_SOLID_BREP('Hex nut DIN 555 M30',#206);
#216=SHAPE_DEFINITION_REPRESENTATION(#430,#217);
#217=SHAPE_REPRESENTATION('Hex nut DIN 555 M30',(#218),#425);
#218=AXIS2_PLACEMENT_3D('',#284,#238,#239);
#219=AXIS2_PLACEMENT_3D('',#285,#240,#241);
#220=AXIS2_PLACEMENT_3D('',#286,#242,#243);
#221=AXIS2_PLACEMENT_3D('',#288,#244,#245);
#222=AXIS2_PLACEMENT_3D('',#290,#246,#247);
#223=AXIS2_PLACEMENT_3D('',#345,#248,#249);
#224=AXIS2_PLACEMENT_3D('',#346,#250,#251);
#225=AXIS2_PLACEMENT_3D('',#402,#252,#253);
#226=AXIS2_PLACEMENT_3D('',#403,#254,#255);
#227=AXIS2_PLACEMENT_3D('',#405,#256,#257);
#228=AXIS2_PLACEMENT_3D('',#406,#258,#259);
#229=AXIS2_PLACEMENT_3D('',#408,#260,#261);
#230=AXIS2_PLACEMENT_3D('',#409,#262,#263);
#231=AXIS2_PLACEMENT_3D('',#411,#264,#265);
#232=AXIS2_PLACEMENT_3D('',#412,#266,#267);
#233=AXIS2_PLACEMENT_3D('',#415,#270,#271);
#234=AXIS2_PLACEMENT_3D('',#417,#273,#274);
#235=AXIS2_PLACEMENT_3D('',#419,#276,#277);
#236=AXIS2_PLACEMENT_3D('',#421,#279,#280);
#237=AXIS2_PLACEMENT_3D('',#423,#282,#283);
#238=DIRECTION('',(0.,0.,1.));
#239=DIRECTION('',(1.,0.,0.));
#240=DIRECTION('',(1.,0.,0.));
#241=DIRECTION('',(0.,0.,-1.));
#242=DIRECTION('',(1.,0.,0.));
#243=DIRECTION('',(0.,0.,-1.));
#244=DIRECTION('',(1.,0.,0.));
#245=DIRECTION('',(0.,0.,-1.));
#246=DIRECTION('',(1.,0.,0.));
#247=DIRECTION('',(0.,0.,-1.));
#248=DIRECTION('',(-1.,0.,0.));
#249=DIRECTION('',(0.,0.,1.));
#250=DIRECTION('',(1.,0.,0.));
#251=DIRECTION('',(0.,0.,-1.));
#252=DIRECTION('',(-1.,0.,0.));
#253=DIRECTION('',(0.,0.,1.));
#254=DIRECTION('',(1.,0.,0.));
#255=DIRECTION('',(0.,0.,-1.));
#256=DIRECTION('',(-1.,0.,0.));
#257=DIRECTION('',(0.,0.,1.));
#258=DIRECTION('',(1.,0.,0.));
#259=DIRECTION('',(0.,0.,-1.));
#260=DIRECTION('',(1.,0.,0.));
#261=DIRECTION('',(0.,0.,-1.));
#262=DIRECTION('',(1.,0.,0.));
#263=DIRECTION('',(0.,0.,-1.));
#264=DIRECTION('',(1.,0.,0.));
#265=DIRECTION('',(0.,0.,-1.));
#266=DIRECTION('',(0.,0.,-1.));
#267=DIRECTION('',(-1.,0.,0.));
#268=DIRECTION('',(-1.,0.,0.));
#269=DIRECTION('',(-1.,0.,0.));
#270=DIRECTION('',(0.,-0.866025403784439,-0.5));
#271=DIRECTION('',(0.,0.5,-0.866025403784439));
#272=DIRECTION('',(-1.,0.,0.));
#273=DIRECTION('',(0.,-0.866025403784439,0.5));
#274=DIRECTION('',(0.,-0.5,-0.866025403784439));
#275=DIRECTION('',(-1.,0.,0.));
#276=DIRECTION('',(0.,0.,1.));
#277=DIRECTION('',(1.,0.,0.));
#278=DIRECTION('',(-1.,0.,0.));
#279=DIRECTION('',(0.,0.866025403784439,0.5));
#280=DIRECTION('',(0.,-0.5,0.866025403784439));
#281=DIRECTION('',(-1.,0.,0.));
#282=DIRECTION('',(0.,0.866025403784439,-0.5));
#283=DIRECTION('',(0.,0.5,0.866025403784439));
#284=CARTESIAN_POINT('',(0.,0.,0.));
#285=CARTESIAN_POINT('',(0.,0.,0.));
#286=CARTESIAN_POINT('',(0.,0.,0.));
#287=CARTESIAN_POINT('',(0.,0.,-20.7));
#288=CARTESIAN_POINT('',(0.,0.,0.));
#289=CARTESIAN_POINT('',(0.,0.,-15.));
#290=CARTESIAN_POINT('',(0.,0.,0.));
#291=CARTESIAN_POINT('',(3.38218276110793,13.2790561913614,23.));
#292=CARTESIAN_POINT('',(2.75627194130188,14.3631655322725,21.1222675405819));
#293=CARTESIAN_POINT('',(1.72332167200749,16.5465225752081,17.3405822111542));
#294=CARTESIAN_POINT('',(1.23097060046666,19.3359984756082,12.5090682251722));
#295=CARTESIAN_POINT('',(1.42332969689481,21.6035806294522,8.58150072437798));
#296=CARTESIAN_POINT('',(1.97969311155145,23.8300340974794,4.72517019706688));
#297=CARTESIAN_POINT('',(2.75549161264293,25.4726514729276,1.8800734453952));
#298=CARTESIAN_POINT('',(3.382182761108,26.5581123827228,-1.28507537418237E-14));
#299=CARTESIAN_POINT('',(3.38218276110808,13.2790561913614,23.));
#300=CARTESIAN_POINT('',(3.38218276110808,26.5581123827228,0.));
#301=CARTESIAN_POINT('',(3.38218276110793,26.5581123827228,1.64454614811168E-14));
#302=CARTESIAN_POINT('',(2.75627194130188,25.4740030418116,-1.87773245941813));
#303=CARTESIAN_POINT('',(1.72332167200749,23.2906459988761,-5.6594177888458));
#304=CARTESIAN_POINT('',(1.23097060046665,20.5011700984759,-10.4909317748278));
#305=CARTESIAN_POINT('',(1.42332969689481,18.233587944632,-14.418499275622));
#306=CARTESIAN_POINT('',(1.97969311155145,16.0071344766047,-18.2748298029331));
#307=CARTESIAN_POINT('',(2.75549161264293,14.3645171011566,-21.1199265546048));
#308=CARTESIAN_POINT('',(3.382182761108,13.2790561913614,-23.));
#309=CARTESIAN_POINT('',(3.38218276110808,13.2790561913614,-23.));
#310=CARTESIAN_POINT('',(3.38218276110808,13.2790561913614,-23.));
#311=CARTESIAN_POINT('',(2.7579805059633,11.1167561511417,-23.));
#312=CARTESIAN_POINT('',(1.72459536272138,6.75953284374043,-23.));
#313=CARTESIAN_POINT('',(1.22937998852851,1.14038767288751,-23.));
#314=CARTESIAN_POINT('',(1.42591394631137,-3.39880316499338,-23.));
#315=CARTESIAN_POINT('',(1.98410355426734,-7.84397686450544,-23.));
#316=CARTESIAN_POINT('',(2.75829373393157,-11.1178412046525,-23.));
#317=CARTESIAN_POINT('',(3.38218276110808,-13.2790561913614,-23.));
#318=CARTESIAN_POINT('',(3.38218276110808,-13.2790561913614,-23.));
#319=CARTESIAN_POINT('',(3.38218276110793,-13.2790561913614,-23.));
#320=CARTESIAN_POINT('',(2.75627194130188,-14.3631655322725,-21.1222675405819));
#321=CARTESIAN_POINT('',(1.72332167200749,-16.5465225752081,-17.3405822111542));
#322=CARTESIAN_POINT('',(1.23097060046666,-19.3359984756082,-12.5090682251722));
#323=CARTESIAN_POINT('',(1.42332969689481,-21.6035806294522,-8.58150072437798));
#324=CARTESIAN_POINT('',(1.97969311155145,-23.8300340974794,-4.72517019706688));
#325=CARTESIAN_POINT('',(2.75549161264293,-25.4726514729276,-1.8800734453952));
#326=CARTESIAN_POINT('',(3.382182761108,-26.5581123827228,1.28507537418237E-14));
#327=CARTESIAN_POINT('',(3.38218276110808,-26.5581123827228,0.));
#328=CARTESIAN_POINT('',(3.38218276110793,-26.5581123827228,-1.64454614811168E-14));
#329=CARTESIAN_POINT('',(2.75627194130188,-25.4740030418116,1.87773245941813));
#330=CARTESIAN_POINT('',(1.72332167200749,-23.2906459988761,5.6594177888458));
#331=CARTESIAN_POINT('',(1.23097060046665,-20.5011700984759,10.4909317748278));
#332=CARTESIAN_POINT('',(1.42332969689481,-18.233587944632,14.418499275622));
#333=CARTESIAN_POINT('',(1.97969311155145,-16.0071344766047,18.2748298029331));
#334=CARTESIAN_POINT('',(2.75549161264293,-14.3645171011566,21.1199265546048));
#335=CARTESIAN_POINT('',(3.382182761108,-13.2790561913614,23.));
#336=CARTESIAN_POINT('',(3.38218276110808,-13.2790561913614,23.));
#337=CARTESIAN_POINT('',(3.38218276110808,-13.2790561913614,23.));
#338=CARTESIAN_POINT('',(2.7579805059633,-11.1167561511417,23.));
#339=CARTESIAN_POINT('',(1.72459536272138,-6.75953284374043,23.));
#340=CARTESIAN_POINT('',(1.22937998852851,-1.14038767288751,23.));
#341=CARTESIAN_POINT('',(1.42591394631137,3.39880316499338,23.));
#342=CARTESIAN_POINT('',(1.98410355426734,7.84397686450544,23.));
#343=CARTESIAN_POINT('',(2.75829373393157,11.1178412046525,23.));
#344=CARTESIAN_POINT('',(3.38218276110808,13.2790561913614,23.));
#345=CARTESIAN_POINT('',(20.0162831425916,0.,0.));
#346=CARTESIAN_POINT('',(24.,0.,0.));
#347=CARTESIAN_POINT('',(24.,0.,-20.7));
#348=CARTESIAN_POINT('',(20.6178172388921,26.5581123827228,-1.66349238916997E-14));
#349=CARTESIAN_POINT('',(21.2437280586981,25.4740030418116,1.87773245941813));
#350=CARTESIAN_POINT('',(22.2766783279925,23.2906459988761,5.6594177888458));
#351=CARTESIAN_POINT('',(22.7690293995333,20.5011700984759,10.4909317748278));
#352=CARTESIAN_POINT('',(22.5766703031052,18.233587944632,14.418499275622));
#353=CARTESIAN_POINT('',(22.0203068884485,16.0071344766047,18.2748298029331));
#354=CARTESIAN_POINT('',(21.2445083873571,14.3645171011566,21.1199265546048));
#355=CARTESIAN_POINT('',(20.617817238892,13.2790561913614,23.));
#356=CARTESIAN_POINT('',(20.6178172388919,26.5581123827228,0.));
#357=CARTESIAN_POINT('',(20.6178172388919,13.2790561913614,23.));
#358=CARTESIAN_POINT('',(20.6178172388919,13.2790561913614,23.));
#359=CARTESIAN_POINT('',(21.2420194940367,11.1167561511417,23.));
#360=CARTESIAN_POINT('',(22.2754046372786,6.75953284374043,23.));
#361=CARTESIAN_POINT('',(22.7706200114715,1.14038767288751,23.));
#362=CARTESIAN_POINT('',(22.5740860536886,-3.39880316499338,23.));
#363=CARTESIAN_POINT('',(22.0158964457327,-7.84397686450544,23.));
#364=CARTESIAN_POINT('',(21.2417062660684,-11.1178412046525,23.));
#365=CARTESIAN_POINT('',(20.6178172388919,-13.2790561913614,23.));
#366=CARTESIAN_POINT('',(20.6178172388919,-13.2790561913614,23.));
#367=CARTESIAN_POINT('',(20.6178172388921,-13.2790561913614,23.));
#368=CARTESIAN_POINT('',(21.2437280586981,-14.3631655322725,21.1222675405819));
#369=CARTESIAN_POINT('',(22.2766783279925,-16.5465225752081,17.3405822111542));
#370=CARTESIAN_POINT('',(22.7690293995333,-19.3359984756082,12.5090682251722));
#371=CARTESIAN_POINT('',(22.5766703031052,-21.6035806294522,8.58150072437798));
#372=CARTESIAN_POINT('',(22.0203068884485,-23.8300340974794,4.72517019706688));
#373=CARTESIAN_POINT('',(21.2445083873571,-25.4726514729276,1.8800734453952));
#374=CARTESIAN_POINT('',(20.617817238892,-26.5581123827228,-9.14553095038074E-15));
#375=CARTESIAN_POINT('',(20.6178172388919,-26.5581123827228,6.46496740875167E-16));
#376=CARTESIAN_POINT('',(20.6178172388921,-26.5581123827228,1.68863123516607E-14));
#377=CARTESIAN_POINT('',(21.2437280586981,-25.4740030418116,-1.87773245941813));
#378=CARTESIAN_POINT('',(22.2766783279925,-23.2906459988761,-5.6594177888458));
#379=CARTESIAN_POINT('',(22.7690293995333,-20.5011700984759,-10.4909317748278));
#380=CARTESIAN_POINT('',(22.5766703031052,-18.233587944632,-14.418499275622));
#381=CARTESIAN_POINT('',(22.0203068884485,-16.0071344766047,-18.2748298029331));
#382=CARTESIAN_POINT('',(21.2445083873571,-14.3645171011566,-21.1199265546048));
#383=CARTESIAN_POINT('',(20.617817238892,-13.2790561913614,-23.));
#384=CARTESIAN_POINT('',(20.6178172388919,-13.2790561913614,-23.));
#385=CARTESIAN_POINT('',(20.6178172388919,-13.2790561913614,-23.));
#386=CARTESIAN_POINT('',(21.2420194940367,-11.1167561511417,-23.));
#387=CARTESIAN_POINT('',(22.2754046372786,-6.75953284374043,-23.));
#388=CARTESIAN_POINT('',(22.7706200114715,-1.14038767288751,-23.));
#389=CARTESIAN_POINT('',(22.5740860536886,3.39880316499338,-23.));
#390=CARTESIAN_POINT('',(22.0158964457327,7.84397686450544,-23.));
#391=CARTESIAN_POINT('',(21.2417062660684,11.1178412046525,-23.));
#392=CARTESIAN_POINT('',(20.6178172388919,13.2790561913614,-23.));
#393=CARTESIAN_POINT('',(20.6178172388919,13.2790561913614,-23.));
#394=CARTESIAN_POINT('',(20.6178172388921,13.2790561913614,-23.));
#395=CARTESIAN_POINT('',(21.2437280586981,14.3631655322725,-21.1222675405819));
#396=CARTESIAN_POINT('',(22.2766783279925,16.5465225752081,-17.3405822111542));
#397=CARTESIAN_POINT('',(22.7690293995333,19.3359984756082,-12.5090682251722));
#398=CARTESIAN_POINT('',(22.5766703031052,21.6035806294522,-8.58150072437798));
#399=CARTESIAN_POINT('',(22.0203068884485,23.8300340974794,-4.72517019706688));
#400=CARTESIAN_POINT('',(21.2445083873571,25.4726514729276,-1.8800734453952));
#401=CARTESIAN_POINT('',(20.617817238892,26.5581123827228,9.14553095038074E-15));
#402=CARTESIAN_POINT('',(24.,20.7,0.));
#403=CARTESIAN_POINT('',(24.,0.,0.));
#404=CARTESIAN_POINT('',(24.,0.,-15.));
#405=CARTESIAN_POINT('',(0.,0.,0.));
#406=CARTESIAN_POINT('',(1.8945,0.,0.));
#407=CARTESIAN_POINT('',(1.8945,0.,-13.1055));
#408=CARTESIAN_POINT('',(24.,0.,0.));
#409=CARTESIAN_POINT('',(22.1055,0.,0.));
#410=CARTESIAN_POINT('',(22.1055,0.,-13.1055));
#411=CARTESIAN_POINT('',(22.1055,0.,0.));
#412=CARTESIAN_POINT('',(25.,13.2790561913614,23.));
#413=CARTESIAN_POINT('',(25.,-13.2790561913614,23.));
#414=CARTESIAN_POINT('',(25.,13.2790561913614,23.));
#415=CARTESIAN_POINT('',(25.,26.5581123827228,0.));
#416=CARTESIAN_POINT('',(25.,26.5581123827228,0.));
#417=CARTESIAN_POINT('',(25.,13.2790561913614,-23.));
#418=CARTESIAN_POINT('',(25.,13.2790561913614,-23.));
#419=CARTESIAN_POINT('',(25.,-13.2790561913614,-23.));
#420=CARTESIAN_POINT('',(25.,-13.2790561913614,-23.));
#421=CARTESIAN_POINT('',(25.,-26.5581123827228,0.));
#422=CARTESIAN_POINT('',(25.,-26.5581123827228,0.));
#423=CARTESIAN_POINT('',(25.,-13.2790561913614,23.));
#424=MECHANICAL_DESIGN_GEOMETRIC_PRESENTATION_REPRESENTATION('',(#207),
#425);
#425=(
GEOMETRIC_REPRESENTATION_CONTEXT(3)
GLOBAL_UNCERTAINTY_ASSIGNED_CONTEXT((#426))
GLOBAL_UNIT_ASSIGNED_CONTEXT((#429,#428,#427))
REPRESENTATION_CONTEXT('Hex nut DIN 555 M30','TOP_LEVEL_ASSEMBLY_PART')
);
#426=UNCERTAINTY_MEASURE_WITH_UNIT(LENGTH_MEASURE(0.005),#429,
'DISTANCE_ACCURACY_VALUE','Maximum Tolerance applied to model');
#427=(
NAMED_UNIT(*)
SI_UNIT($,.STERADIAN.)
SOLID_ANGLE_UNIT()
);
#428=(
NAMED_UNIT(*)
PLANE_ANGLE_UNIT()
SI_UNIT($,.RADIAN.)
);
#429=(
LENGTH_UNIT()
NAMED_UNIT(*)
SI_UNIT(.MILLI.,.METRE.)
);
#430=PRODUCT_DEFINITION_SHAPE('','',#431);
#431=PRODUCT_DEFINITION('','',#433,#432);
#432=DESIGN_CONTEXT('',#439,'design');
#433=PRODUCT_DEFINITION_FORMATION_WITH_SPECIFIED_SOURCE('','',#435,
 .NOT_KNOWN.);
#434=PRODUCT_RELATED_PRODUCT_CATEGORY('','',(#435));
#435=PRODUCT('Hex nut DIN 555 M30','Hex nut DIN 555 M30',
'Hex nut DIN 555 M30',(#437));
#436=PRODUCT_CATEGORY('','');
#437=MECHANICAL_CONTEXT('',#439,'mechanical');
#438=APPLICATION_PROTOCOL_DEFINITION('international standard',
'config_control_design',2010,#439);
#439=APPLICATION_CONTEXT(
'configuration controlled 3D designs of mechanical parts and assemblie
s');
ENDSEC;
END-ISO-10303-21;
