ISO-10303-21;
HEADER;
/* Generated by software containing ST-Developer
 * from STEP Tools, Inc. (www.steptools.com) 
 */
/* OPTION: using custom renumber hook */

FILE_DESCRIPTION(
/* description */ ('STEP AP203'),
/* implementation_level */ '2;1');

FILE_NAME(
/* name */ 'Hex nut DIN 555 M20',
/* time_stamp */ '2025-02-20T12:33:30+01:00',
/* author */ ('License CC BY-ND 4.0'),
/* organization */ ('CADENAS'),
/* preprocessor_version */ 'ST-DEVELOPER v19.3',
/* originating_system */ 'PARTsolutions',
/* authorisation */ '  ');

FILE_SCHEMA (('CONFIG_CONTROL_DESIGN','TECHNICAL_DATA_PACKAGING','INTEGRATED_CNC_SCHEMA'));
ENDSEC;

DATA;
#10=PROPERTY_DEFINITION_REPRESENTATION(#14,#12);
#11=PROPERTY_DEFINITION_REPRESENTATION(#15,#13);
#12=REPRESENTATION('',(#16),#413);
#13=REPRESENTATION('',(#17),#413);
#14=PROPERTY_DEFINITION('pmi validation property','',#418);
#15=PROPERTY_DEFINITION('pmi validation property','',#418);
#16=VALUE_REPRESENTATION_ITEM('number of annotations',COUNT_MEASURE(0.));
#17=VALUE_REPRESENTATION_ITEM('number of views',COUNT_MEASURE(0.));
#18=SHAPE_REPRESENTATION_RELATIONSHIP('','',#217,#19);
#19=ADVANCED_BREP_SHAPE_REPRESENTATION('',(#215),#413);
#20=LINE('',#401,#26);
#21=LINE('',#402,#27);
#22=LINE('',#404,#28);
#23=LINE('',#406,#29);
#24=LINE('',#408,#30);
#25=LINE('',#410,#31);
#26=VECTOR('',#268,1000.);
#27=VECTOR('',#269,1000.);
#28=VECTOR('',#272,1000.);
#29=VECTOR('',#275,1000.);
#30=VECTOR('',#278,1000.);
#31=VECTOR('',#281,1000.);
#32=CYLINDRICAL_SURFACE('',#229,8.647);
#33=B_SPLINE_CURVE_WITH_KNOTS('',3,(#291,#292,#293,#294,#295,#296,#297),
 .UNSPECIFIED.,.F.,.F.,(4,1,1,1,4),(2.38072885188005E-7,0.0043734255004862,
0.0087466129280872,0.0131198003556882,0.0174929877832892),.UNSPECIFIED.);
#34=B_SPLINE_CURVE_WITH_KNOTS('',3,(#300,#301,#302,#303,#304,#305,#306),
 .UNSPECIFIED.,.F.,.F.,(4,1,1,1,4),(2.3807288518806E-7,0.0043734255004862,
0.0087466129280872,0.0131198003556882,0.0174929877832892),.UNSPECIFIED.);
#35=B_SPLINE_CURVE_WITH_KNOTS('',3,(#308,#309,#310,#311,#312,#313,#314),
 .UNSPECIFIED.,.F.,.F.,(4,1,1,1,4),(0.0190271438585773,0.0234315216699073,
0.0278358994812373,0.0322402772925673,0.0366446551038974),.UNSPECIFIED.);
#36=B_SPLINE_CURVE_WITH_KNOTS('',3,(#316,#317,#318,#319,#320,#321,#322),
 .UNSPECIFIED.,.F.,.F.,(4,1,1,1,4),(2.38072885188005E-7,0.0043734255004862,
0.0087466129280872,0.0131198003556882,0.0174929877832892),.UNSPECIFIED.);
#37=B_SPLINE_CURVE_WITH_KNOTS('',3,(#324,#325,#326,#327,#328,#329,#330),
 .UNSPECIFIED.,.F.,.F.,(4,1,1,1,4),(2.3807288518806E-7,0.0043734255004862,
0.0087466129280872,0.0131198003556882,0.0174929877832892),.UNSPECIFIED.);
#38=B_SPLINE_CURVE_WITH_KNOTS('',3,(#332,#333,#334,#335,#336,#337,#338),
 .UNSPECIFIED.,.F.,.F.,(4,1,1,1,4),(0.0190271438585773,0.0234315216699073,
0.0278358994812373,0.0322402772925673,0.0366446551038974),.UNSPECIFIED.);
#39=B_SPLINE_CURVE_WITH_KNOTS('',3,(#342,#343,#344,#345,#346,#347,#348),
 .UNSPECIFIED.,.F.,.F.,(4,1,1,1,4),(2.38072885188273E-7,0.0043734255004862,
0.0087466129280872,0.0131198003556882,0.0174929877832892),.UNSPECIFIED.);
#40=B_SPLINE_CURVE_WITH_KNOTS('',3,(#351,#352,#353,#354,#355,#356,#357),
 .UNSPECIFIED.,.F.,.F.,(4,1,1,1,4),(0.0190271438585773,0.0234315216699073,
0.0278358994812373,0.0322402772925673,0.0366446551038974),.UNSPECIFIED.);
#41=B_SPLINE_CURVE_WITH_KNOTS('',3,(#359,#360,#361,#362,#363,#364,#365),
 .UNSPECIFIED.,.F.,.F.,(4,1,1,1,4),(2.38072885188067E-7,0.0043734255004862,
0.0087466129280872,0.0131198003556882,0.0174929877832892),.UNSPECIFIED.);
#42=B_SPLINE_CURVE_WITH_KNOTS('',3,(#367,#368,#369,#370,#371,#372,#373),
 .UNSPECIFIED.,.F.,.F.,(4,1,1,1,4),(2.38072885188504E-7,0.0043734255004862,
0.0087466129280872,0.0131198003556882,0.0174929877832892),.UNSPECIFIED.);
#43=B_SPLINE_CURVE_WITH_KNOTS('',3,(#375,#376,#377,#378,#379,#380,#381),
 .UNSPECIFIED.,.F.,.F.,(4,1,1,1,4),(0.0190271438585773,0.0234315216699073,
0.0278358994812373,0.0322402772925673,0.0366446551038974),.UNSPECIFIED.);
#44=B_SPLINE_CURVE_WITH_KNOTS('',3,(#383,#384,#385,#386,#387,#388,#389),
 .UNSPECIFIED.,.F.,.F.,(4,1,1,1,4),(2.38072885188067E-7,0.0043734255004862,
0.0087466129280872,0.0131198003556882,0.0174929877832892),.UNSPECIFIED.);
#45=CONICAL_SURFACE('',#222,13.5,1.0471975511966);
#46=CONICAL_SURFACE('',#223,18.,1.0471975511966);
#47=CONICAL_SURFACE('',#227,10.,0.785398163397448);
#48=CONICAL_SURFACE('',#231,8.647,0.785398163397448);
#49=ORIENTED_EDGE('',*,*,#97,.F.);
#50=ORIENTED_EDGE('',*,*,#98,.T.);
#51=ORIENTED_EDGE('',*,*,#99,.T.);
#52=ORIENTED_EDGE('',*,*,#100,.T.);
#53=ORIENTED_EDGE('',*,*,#101,.T.);
#54=ORIENTED_EDGE('',*,*,#102,.T.);
#55=ORIENTED_EDGE('',*,*,#103,.T.);
#56=ORIENTED_EDGE('',*,*,#104,.T.);
#57=ORIENTED_EDGE('',*,*,#97,.T.);
#58=ORIENTED_EDGE('',*,*,#105,.F.);
#59=ORIENTED_EDGE('',*,*,#106,.T.);
#60=ORIENTED_EDGE('',*,*,#107,.T.);
#61=ORIENTED_EDGE('',*,*,#108,.T.);
#62=ORIENTED_EDGE('',*,*,#109,.T.);
#63=ORIENTED_EDGE('',*,*,#110,.T.);
#64=ORIENTED_EDGE('',*,*,#111,.T.);
#65=ORIENTED_EDGE('',*,*,#112,.F.);
#66=ORIENTED_EDGE('',*,*,#105,.T.);
#67=ORIENTED_EDGE('',*,*,#113,.T.);
#68=ORIENTED_EDGE('',*,*,#98,.F.);
#69=ORIENTED_EDGE('',*,*,#114,.T.);
#70=ORIENTED_EDGE('',*,*,#113,.F.);
#71=ORIENTED_EDGE('',*,*,#112,.T.);
#72=ORIENTED_EDGE('',*,*,#114,.F.);
#73=ORIENTED_EDGE('',*,*,#115,.F.);
#74=ORIENTED_EDGE('',*,*,#107,.F.);
#75=ORIENTED_EDGE('',*,*,#116,.T.);
#76=ORIENTED_EDGE('',*,*,#104,.F.);
#77=ORIENTED_EDGE('',*,*,#116,.F.);
#78=ORIENTED_EDGE('',*,*,#106,.F.);
#79=ORIENTED_EDGE('',*,*,#117,.T.);
#80=ORIENTED_EDGE('',*,*,#99,.F.);
#81=ORIENTED_EDGE('',*,*,#117,.F.);
#82=ORIENTED_EDGE('',*,*,#111,.F.);
#83=ORIENTED_EDGE('',*,*,#118,.T.);
#84=ORIENTED_EDGE('',*,*,#100,.F.);
#85=ORIENTED_EDGE('',*,*,#118,.F.);
#86=ORIENTED_EDGE('',*,*,#110,.F.);
#87=ORIENTED_EDGE('',*,*,#119,.T.);
#88=ORIENTED_EDGE('',*,*,#101,.F.);
#89=ORIENTED_EDGE('',*,*,#119,.F.);
#90=ORIENTED_EDGE('',*,*,#109,.F.);
#91=ORIENTED_EDGE('',*,*,#120,.T.);
#92=ORIENTED_EDGE('',*,*,#102,.F.);
#93=ORIENTED_EDGE('',*,*,#120,.F.);
#94=ORIENTED_EDGE('',*,*,#108,.F.);
#95=ORIENTED_EDGE('',*,*,#115,.T.);
#96=ORIENTED_EDGE('',*,*,#103,.F.);
#97=EDGE_CURVE('',#121,#121,#139,.T.);
#98=EDGE_CURVE('',#122,#122,#140,.T.);
#99=EDGE_CURVE('',#123,#124,#33,.T.);
#100=EDGE_CURVE('',#124,#125,#34,.T.);
#101=EDGE_CURVE('',#125,#126,#35,.T.);
#102=EDGE_CURVE('',#126,#127,#36,.T.);
#103=EDGE_CURVE('',#127,#128,#37,.T.);
#104=EDGE_CURVE('',#128,#123,#38,.T.);
#105=EDGE_CURVE('',#129,#129,#141,.T.);
#106=EDGE_CURVE('',#130,#131,#39,.T.);
#107=EDGE_CURVE('',#131,#132,#40,.T.);
#108=EDGE_CURVE('',#132,#133,#41,.T.);
#109=EDGE_CURVE('',#133,#134,#42,.T.);
#110=EDGE_CURVE('',#134,#135,#43,.T.);
#111=EDGE_CURVE('',#135,#130,#44,.T.);
#112=EDGE_CURVE('',#136,#136,#142,.T.);
#113=EDGE_CURVE('',#137,#137,#143,.T.);
#114=EDGE_CURVE('',#138,#138,#144,.T.);
#115=EDGE_CURVE('',#132,#128,#20,.T.);
#116=EDGE_CURVE('',#131,#123,#21,.T.);
#117=EDGE_CURVE('',#130,#124,#22,.T.);
#118=EDGE_CURVE('',#135,#125,#23,.T.);
#119=EDGE_CURVE('',#134,#126,#24,.T.);
#120=EDGE_CURVE('',#133,#127,#25,.T.);
#121=VERTEX_POINT('',#287);
#122=VERTEX_POINT('',#289);
#123=VERTEX_POINT('',#298);
#124=VERTEX_POINT('',#299);
#125=VERTEX_POINT('',#307);
#126=VERTEX_POINT('',#315);
#127=VERTEX_POINT('',#323);
#128=VERTEX_POINT('',#331);
#129=VERTEX_POINT('',#341);
#130=VERTEX_POINT('',#349);
#131=VERTEX_POINT('',#350);
#132=VERTEX_POINT('',#358);
#133=VERTEX_POINT('',#366);
#134=VERTEX_POINT('',#374);
#135=VERTEX_POINT('',#382);
#136=VERTEX_POINT('',#392);
#137=VERTEX_POINT('',#395);
#138=VERTEX_POINT('',#398);
#139=CIRCLE('',#220,13.5);
#140=CIRCLE('',#221,10.);
#141=CIRCLE('',#224,13.5);
#142=CIRCLE('',#226,10.);
#143=CIRCLE('',#228,8.647);
#144=CIRCLE('',#230,8.647);
#145=EDGE_LOOP('',(#49));
#146=EDGE_LOOP('',(#50));
#147=EDGE_LOOP('',(#51,#52,#53,#54,#55,#56));
#148=EDGE_LOOP('',(#57));
#149=EDGE_LOOP('',(#58));
#150=EDGE_LOOP('',(#59,#60,#61,#62,#63,#64));
#151=EDGE_LOOP('',(#65));
#152=EDGE_LOOP('',(#66));
#153=EDGE_LOOP('',(#67));
#154=EDGE_LOOP('',(#68));
#155=EDGE_LOOP('',(#69));
#156=EDGE_LOOP('',(#70));
#157=EDGE_LOOP('',(#71));
#158=EDGE_LOOP('',(#72));
#159=EDGE_LOOP('',(#73,#74,#75,#76));
#160=EDGE_LOOP('',(#77,#78,#79,#80));
#161=EDGE_LOOP('',(#81,#82,#83,#84));
#162=EDGE_LOOP('',(#85,#86,#87,#88));
#163=EDGE_LOOP('',(#89,#90,#91,#92));
#164=EDGE_LOOP('',(#93,#94,#95,#96));
#165=FACE_BOUND('',#145,.T.);
#166=FACE_BOUND('',#146,.T.);
#167=FACE_BOUND('',#147,.T.);
#168=FACE_BOUND('',#148,.T.);
#169=FACE_BOUND('',#149,.T.);
#170=FACE_BOUND('',#150,.T.);
#171=FACE_BOUND('',#151,.T.);
#172=FACE_BOUND('',#152,.T.);
#173=FACE_BOUND('',#153,.T.);
#174=FACE_BOUND('',#154,.T.);
#175=FACE_BOUND('',#155,.T.);
#176=FACE_BOUND('',#156,.T.);
#177=FACE_BOUND('',#157,.T.);
#178=FACE_BOUND('',#158,.T.);
#179=FACE_BOUND('',#159,.T.);
#180=FACE_BOUND('',#160,.T.);
#181=FACE_BOUND('',#161,.T.);
#182=FACE_BOUND('',#162,.T.);
#183=FACE_BOUND('',#163,.T.);
#184=FACE_BOUND('',#164,.T.);
#185=PLANE('',#219);
#186=PLANE('',#225);
#187=PLANE('',#232);
#188=PLANE('',#233);
#189=PLANE('',#234);
#190=PLANE('',#235);
#191=PLANE('',#236);
#192=PLANE('',#237);
#193=ADVANCED_FACE('',(#165,#166),#185,.F.);
#194=ADVANCED_FACE('',(#167,#168),#45,.T.);
#195=ADVANCED_FACE('',(#169,#170),#46,.T.);
#196=ADVANCED_FACE('',(#171,#172),#186,.F.);
#197=ADVANCED_FACE('',(#173,#174),#47,.F.);
#198=ADVANCED_FACE('',(#175,#176),#32,.F.);
#199=ADVANCED_FACE('',(#177,#178),#48,.F.);
#200=ADVANCED_FACE('',(#179),#187,.F.);
#201=ADVANCED_FACE('',(#180),#188,.F.);
#202=ADVANCED_FACE('',(#181),#189,.F.);
#203=ADVANCED_FACE('',(#182),#190,.F.);
#204=ADVANCED_FACE('',(#183),#191,.F.);
#205=ADVANCED_FACE('',(#184),#192,.F.);
#206=CLOSED_SHELL('',(#193,#194,#195,#196,#197,#198,#199,#200,#201,#202,
#203,#204,#205));
#207=STYLED_ITEM('',(#208),#215);
#208=PRESENTATION_STYLE_ASSIGNMENT((#209));
#209=SURFACE_STYLE_USAGE(.BOTH.,#210);
#210=SURFACE_SIDE_STYLE('',(#211));
#211=SURFACE_STYLE_FILL_AREA(#212);
#212=FILL_AREA_STYLE('',(#213));
#213=FILL_AREA_STYLE_COLOUR('',#214);
#214=COLOUR_RGB('',0.689999997615814,0.689999997615814,0.689999997615814);
#215=MANIFOLD_SOLID_BREP('Hex nut DIN 555 M20',#206);
#216=SHAPE_DEFINITION_REPRESENTATION(#418,#217);
#217=SHAPE_REPRESENTATION('Hex nut DIN 555 M20',(#218),#413);
#218=AXIS2_PLACEMENT_3D('',#284,#238,#239);
#219=AXIS2_PLACEMENT_3D('',#285,#240,#241);
#220=AXIS2_PLACEMENT_3D('',#286,#242,#243);
#221=AXIS2_PLACEMENT_3D('',#288,#244,#245);
#222=AXIS2_PLACEMENT_3D('',#290,#246,#247);
#223=AXIS2_PLACEMENT_3D('',#339,#248,#249);
#224=AXIS2_PLACEMENT_3D('',#340,#250,#251);
#225=AXIS2_PLACEMENT_3D('',#390,#252,#253);
#226=AXIS2_PLACEMENT_3D('',#391,#254,#255);
#227=AXIS2_PLACEMENT_3D('',#393,#256,#257);
#228=AXIS2_PLACEMENT_3D('',#394,#258,#259);
#229=AXIS2_PLACEMENT_3D('',#396,#260,#261);
#230=AXIS2_PLACEMENT_3D('',#397,#262,#263);
#231=AXIS2_PLACEMENT_3D('',#399,#264,#265);
#232=AXIS2_PLACEMENT_3D('',#400,#266,#267);
#233=AXIS2_PLACEMENT_3D('',#403,#270,#271);
#234=AXIS2_PLACEMENT_3D('',#405,#273,#274);
#235=AXIS2_PLACEMENT_3D('',#407,#276,#277);
#236=AXIS2_PLACEMENT_3D('',#409,#279,#280);
#237=AXIS2_PLACEMENT_3D('',#411,#282,#283);
#238=DIRECTION('',(0.,0.,1.));
#239=DIRECTION('',(1.,0.,0.));
#240=DIRECTION('',(1.,0.,0.));
#241=DIRECTION('',(0.,0.,-1.));
#242=DIRECTION('',(1.,0.,0.));
#243=DIRECTION('',(0.,0.,-1.));
#244=DIRECTION('',(1.,0.,0.));
#245=DIRECTION('',(0.,0.,-1.));
#246=DIRECTION('',(1.,0.,0.));
#247=DIRECTION('',(0.,0.,-1.));
#248=DIRECTION('',(-1.,0.,0.));
#249=DIRECTION('',(0.,0.,1.));
#250=DIRECTION('',(1.,0.,0.));
#251=DIRECTION('',(0.,0.,-1.));
#252=DIRECTION('',(-1.,0.,0.));
#253=DIRECTION('',(0.,0.,1.));
#254=DIRECTION('',(1.,0.,0.));
#255=DIRECTION('',(0.,0.,-1.));
#256=DIRECTION('',(-1.,0.,0.));
#257=DIRECTION('',(0.,0.,1.));
#258=DIRECTION('',(1.,0.,0.));
#259=DIRECTION('',(0.,0.,-1.));
#260=DIRECTION('',(1.,0.,0.));
#261=DIRECTION('',(0.,0.,-1.));
#262=DIRECTION('',(1.,0.,0.));
#263=DIRECTION('',(0.,0.,-1.));
#264=DIRECTION('',(1.,0.,0.));
#265=DIRECTION('',(0.,0.,-1.));
#266=DIRECTION('',(0.,0.,-1.));
#267=DIRECTION('',(-1.,0.,0.));
#268=DIRECTION('',(-1.,0.,0.));
#269=DIRECTION('',(-1.,0.,0.));
#270=DIRECTION('',(0.,-0.866025403784439,-0.5));
#271=DIRECTION('',(0.,0.5,-0.866025403784439));
#272=DIRECTION('',(-1.,0.,0.));
#273=DIRECTION('',(0.,-0.866025403784439,0.5));
#274=DIRECTION('',(0.,-0.5,-0.866025403784439));
#275=DIRECTION('',(-1.,0.,0.));
#276=DIRECTION('',(0.,0.,1.));
#277=DIRECTION('',(1.,0.,0.));
#278=DIRECTION('',(-1.,0.,0.));
#279=DIRECTION('',(0.,0.866025403784439,0.5));
#280=DIRECTION('',(0.,-0.5,0.866025403784439));
#281=DIRECTION('',(-1.,0.,0.));
#282=DIRECTION('',(0.,0.866025403784439,-0.5));
#283=DIRECTION('',(0.,0.5,0.866025403784439));
#284=CARTESIAN_POINT('',(0.,0.,0.));
#285=CARTESIAN_POINT('',(0.,0.,0.));
#286=CARTESIAN_POINT('',(0.,0.,0.));
#287=CARTESIAN_POINT('',(0.,0.,-13.5));
#288=CARTESIAN_POINT('',(0.,0.,0.));
#289=CARTESIAN_POINT('',(0.,0.,-10.));
#290=CARTESIAN_POINT('',(0.,0.,0.));
#291=CARTESIAN_POINT('',(2.20577136593982,8.66025403784437,15.));
#292=CARTESIAN_POINT('',(1.79756872055132,9.36728175944127,13.7753920638345));
#293=CARTESIAN_POINT('',(1.12417465506209,10.7900154884635,11.3111449595261));
#294=CARTESIAN_POINT('',(0.73764494505446,12.9784604599159,7.52064707940185));
#295=CARTESIAN_POINT('',(1.12142961914502,15.1887757225775,3.692268743727));
#296=CARTESIAN_POINT('',(1.79705983363617,16.6125989360993,1.22613459691128));
#297=CARTESIAN_POINT('',(2.20577136593994,17.3205080756888,-1.86719016450452E-14));
#298=CARTESIAN_POINT('',(2.20577136594005,8.66025403784439,15.));
#299=CARTESIAN_POINT('',(2.20577136594005,17.3205080756888,0.));
#300=CARTESIAN_POINT('',(2.20577136593982,17.3205080756888,2.92157197959912E-14));
#301=CARTESIAN_POINT('',(1.79756872055132,16.6134803540919,-1.22460793616546));
#302=CARTESIAN_POINT('',(1.12417465506209,15.1907466250697,-3.68885504047391));
#303=CARTESIAN_POINT('',(0.73764494505446,13.0023016536172,-7.47935292059815));
#304=CARTESIAN_POINT('',(1.12142961914502,10.7919863909556,-11.307731256273));
#305=CARTESIAN_POINT('',(1.79705983363617,9.36816317743383,-13.7738654030887));
#306=CARTESIAN_POINT('',(2.20577136593993,8.66025403784438,-15.));
#307=CARTESIAN_POINT('',(2.20577136594005,8.66025403784439,-15.));
#308=CARTESIAN_POINT('',(2.20577136594005,8.66025403784439,-15.));
#309=CARTESIAN_POINT('',(1.79868296373672,7.25005844626797,-15.));
#310=CARTESIAN_POINT('',(1.12491269927729,4.41077776813412,-15.));
#311=CARTESIAN_POINT('',(0.736558145808602,0.00244531145254791,-15.));
#312=CARTESIAN_POINT('',(1.12500732366027,-4.41299602311008,-15.));
#313=CARTESIAN_POINT('',(1.79888721005124,-7.25076597625599,-15.));
#314=CARTESIAN_POINT('',(2.20577136594005,-8.66025403784439,-15.));
#315=CARTESIAN_POINT('',(2.20577136594005,-8.66025403784439,-15.));
#316=CARTESIAN_POINT('',(2.20577136593982,-8.66025403784437,-15.));
#317=CARTESIAN_POINT('',(1.79756872055132,-9.36728175944127,-13.7753920638345));
#318=CARTESIAN_POINT('',(1.12417465506209,-10.7900154884635,-11.3111449595261));
#319=CARTESIAN_POINT('',(0.73764494505446,-12.9784604599159,-7.52064707940185));
#320=CARTESIAN_POINT('',(1.12142961914502,-15.1887757225775,-3.692268743727));
#321=CARTESIAN_POINT('',(1.79705983363617,-16.6125989360993,-1.22613459691128));
#322=CARTESIAN_POINT('',(2.20577136593994,-17.3205080756888,1.86719016450452E-14));
#323=CARTESIAN_POINT('',(2.20577136594005,-17.3205080756888,0.));
#324=CARTESIAN_POINT('',(2.20577136593982,-17.3205080756888,-2.92157197959912E-14));
#325=CARTESIAN_POINT('',(1.79756872055132,-16.6134803540919,1.22460793616546));
#326=CARTESIAN_POINT('',(1.12417465506209,-15.1907466250697,3.68885504047391));
#327=CARTESIAN_POINT('',(0.73764494505446,-13.0023016536172,7.47935292059815));
#328=CARTESIAN_POINT('',(1.12142961914502,-10.7919863909556,11.307731256273));
#329=CARTESIAN_POINT('',(1.79705983363617,-9.36816317743383,13.7738654030887));
#330=CARTESIAN_POINT('',(2.20577136593993,-8.66025403784438,15.));
#331=CARTESIAN_POINT('',(2.20577136594005,-8.66025403784439,15.));
#332=CARTESIAN_POINT('',(2.20577136594005,-8.66025403784439,15.));
#333=CARTESIAN_POINT('',(1.79868296373672,-7.25005844626797,15.));
#334=CARTESIAN_POINT('',(1.12491269927729,-4.41077776813412,15.));
#335=CARTESIAN_POINT('',(0.736558145808602,-0.00244531145254791,15.));
#336=CARTESIAN_POINT('',(1.12500732366027,4.41299602311008,15.));
#337=CARTESIAN_POINT('',(1.79888721005124,7.25076597625599,15.));
#338=CARTESIAN_POINT('',(2.20577136594005,8.66025403784439,15.));
#339=CARTESIAN_POINT('',(13.4019237886467,0.,0.));
#340=CARTESIAN_POINT('',(16.,0.,0.));
#341=CARTESIAN_POINT('',(16.,0.,-13.5));
#342=CARTESIAN_POINT('',(13.7942286340602,17.3205080756888,-2.87598266460081E-14));
#343=CARTESIAN_POINT('',(14.2024312794487,16.6134803540919,1.22460793616546));
#344=CARTESIAN_POINT('',(14.8758253449379,15.1907466250697,3.68885504047391));
#345=CARTESIAN_POINT('',(15.2623550549455,13.0023016536172,7.47935292059815));
#346=CARTESIAN_POINT('',(14.878570380855,10.7919863909556,11.307731256273));
#347=CARTESIAN_POINT('',(14.2029401663638,9.36816317743383,13.7738654030887));
#348=CARTESIAN_POINT('',(13.7942286340601,8.66025403784438,15.));
#349=CARTESIAN_POINT('',(13.7942286340599,17.3205080756888,0.));
#350=CARTESIAN_POINT('',(13.7942286340599,8.66025403784439,15.));
#351=CARTESIAN_POINT('',(13.7942286340599,8.66025403784439,15.));
#352=CARTESIAN_POINT('',(14.2013170362633,7.25005844626798,15.));
#353=CARTESIAN_POINT('',(14.8750873007227,4.41077776813412,15.));
#354=CARTESIAN_POINT('',(15.2634418541914,0.00244531145255439,15.));
#355=CARTESIAN_POINT('',(14.8749926763397,-4.41299602311008,15.));
#356=CARTESIAN_POINT('',(14.2011127899488,-7.25076597625599,15.));
#357=CARTESIAN_POINT('',(13.79422863406,-8.66025403784439,15.));
#358=CARTESIAN_POINT('',(13.7942286340599,-8.66025403784439,15.));
#359=CARTESIAN_POINT('',(13.7942286340602,-8.66025403784437,15.));
#360=CARTESIAN_POINT('',(14.2024312794487,-9.36728175944127,13.7753920638345));
#361=CARTESIAN_POINT('',(14.8758253449379,-10.7900154884635,11.3111449595261));
#362=CARTESIAN_POINT('',(15.2623550549455,-12.9784604599159,7.52064707940185));
#363=CARTESIAN_POINT('',(14.878570380855,-15.1887757225775,3.692268743727));
#364=CARTESIAN_POINT('',(14.2029401663638,-16.6125989360993,1.22613459691129));
#365=CARTESIAN_POINT('',(13.7942286340601,-17.3205080756888,-1.79801582093176E-14));
#366=CARTESIAN_POINT('',(13.79422863406,-17.3205080756888,-7.89961639823866E-17));
#367=CARTESIAN_POINT('',(13.7942286340602,-17.3205080756888,2.86172058191529E-14));
#368=CARTESIAN_POINT('',(14.2024312794487,-16.6134803540919,-1.22460793616546));
#369=CARTESIAN_POINT('',(14.8758253449379,-15.1907466250697,-3.68885504047391));
#370=CARTESIAN_POINT('',(15.2623550549455,-13.0023016536172,-7.47935292059815));
#371=CARTESIAN_POINT('',(14.878570380855,-10.7919863909556,-11.307731256273));
#372=CARTESIAN_POINT('',(14.2029401663638,-9.36816317743383,-13.7738654030887));
#373=CARTESIAN_POINT('',(13.7942286340601,-8.66025403784438,-15.));
#374=CARTESIAN_POINT('',(13.7942286340599,-8.66025403784439,-15.));
#375=CARTESIAN_POINT('',(13.7942286340599,-8.66025403784439,-15.));
#376=CARTESIAN_POINT('',(14.2013170362633,-7.25005844626798,-15.));
#377=CARTESIAN_POINT('',(14.8750873007227,-4.41077776813412,-15.));
#378=CARTESIAN_POINT('',(15.2634418541914,-0.00244531145255439,-15.));
#379=CARTESIAN_POINT('',(14.8749926763397,4.41299602311008,-15.));
#380=CARTESIAN_POINT('',(14.2011127899488,7.25076597625599,-15.));
#381=CARTESIAN_POINT('',(13.79422863406,8.66025403784439,-15.));
#382=CARTESIAN_POINT('',(13.7942286340599,8.66025403784439,-15.));
#383=CARTESIAN_POINT('',(13.7942286340602,8.66025403784437,-15.));
#384=CARTESIAN_POINT('',(14.2024312794487,9.36728175944127,-13.7753920638345));
#385=CARTESIAN_POINT('',(14.8758253449379,10.7900154884635,-11.3111449595261));
#386=CARTESIAN_POINT('',(15.2623550549455,12.9784604599159,-7.52064707940185));
#387=CARTESIAN_POINT('',(14.878570380855,15.1887757225775,-3.692268743727));
#388=CARTESIAN_POINT('',(14.2029401663638,16.6125989360993,-1.22613459691129));
#389=CARTESIAN_POINT('',(13.7942286340601,17.3205080756888,1.79801582093176E-14));
#390=CARTESIAN_POINT('',(16.,13.5,0.));
#391=CARTESIAN_POINT('',(16.,0.,0.));
#392=CARTESIAN_POINT('',(16.,0.,-10.));
#393=CARTESIAN_POINT('',(0.,0.,0.));
#394=CARTESIAN_POINT('',(1.353,0.,0.));
#395=CARTESIAN_POINT('',(1.353,0.,-8.647));
#396=CARTESIAN_POINT('',(16.,0.,0.));
#397=CARTESIAN_POINT('',(14.647,0.,0.));
#398=CARTESIAN_POINT('',(14.647,0.,-8.647));
#399=CARTESIAN_POINT('',(14.647,0.,0.));
#400=CARTESIAN_POINT('',(17.,8.66025403784439,15.));
#401=CARTESIAN_POINT('',(17.,-8.66025403784439,15.));
#402=CARTESIAN_POINT('',(17.,8.66025403784439,15.));
#403=CARTESIAN_POINT('',(17.,17.3205080756888,0.));
#404=CARTESIAN_POINT('',(17.,17.3205080756888,0.));
#405=CARTESIAN_POINT('',(17.,8.66025403784439,-15.));
#406=CARTESIAN_POINT('',(17.,8.66025403784439,-15.));
#407=CARTESIAN_POINT('',(17.,-8.66025403784439,-15.));
#408=CARTESIAN_POINT('',(17.,-8.66025403784439,-15.));
#409=CARTESIAN_POINT('',(17.,-17.3205080756888,0.));
#410=CARTESIAN_POINT('',(17.,-17.3205080756888,0.));
#411=CARTESIAN_POINT('',(17.,-8.66025403784439,15.));
#412=MECHANICAL_DESIGN_GEOMETRIC_PRESENTATION_REPRESENTATION('',(#207),
#413);
#413=(
GEOMETRIC_REPRESENTATION_CONTEXT(3)
GLOBAL_UNCERTAINTY_ASSIGNED_CONTEXT((#414))
GLOBAL_UNIT_ASSIGNED_CONTEXT((#417,#416,#415))
REPRESENTATION_CONTEXT('Hex nut DIN 555 M20','TOP_LEVEL_ASSEMBLY_PART')
);
#414=UNCERTAINTY_MEASURE_WITH_UNIT(LENGTH_MEASURE(0.005),#417,
'DISTANCE_ACCURACY_VALUE','Maximum Tolerance applied to model');
#415=(
NAMED_UNIT(*)
SI_UNIT($,.STERADIAN.)
SOLID_ANGLE_UNIT()
);
#416=(
NAMED_UNIT(*)
PLANE_ANGLE_UNIT()
SI_UNIT($,.RADIAN.)
);
#417=(
LENGTH_UNIT()
NAMED_UNIT(*)
SI_UNIT(.MILLI.,.METRE.)
);
#418=PRODUCT_DEFINITION_SHAPE('','',#419);
#419=PRODUCT_DEFINITION('','',#421,#420);
#420=DESIGN_CONTEXT('',#427,'design');
#421=PRODUCT_DEFINITION_FORMATION_WITH_SPECIFIED_SOURCE('','',#423,
 .NOT_KNOWN.);
#422=PRODUCT_RELATED_PRODUCT_CATEGORY('','',(#423));
#423=PRODUCT('Hex nut DIN 555 M20','Hex nut DIN 555 M20',
'Hex nut DIN 555 M20',(#425));
#424=PRODUCT_CATEGORY('','');
#425=MECHANICAL_CONTEXT('',#427,'mechanical');
#426=APPLICATION_PROTOCOL_DEFINITION('international standard',
'config_control_design',2010,#427);
#427=APPLICATION_CONTEXT(
'configuration controlled 3D designs of mechanical parts and assemblie
s');
ENDSEC;
END-ISO-10303-21;
