ISO-10303-21;
HEADER;
FILE_DESCRIPTION (( 'STEP AP203' ),
    '1' );
FILE_NAME ('bike crank.STEP',
    '2026-04-22T08:46:53',
    ( '' ),
    ( '' ),
    'SwSTEP 2.0',
    'SolidWorks 2025',
    '' );
FILE_SCHEMA (( 'CONFIG_CONTROL_DESIGN' ));
ENDSEC;

DATA;
#1 = CARTESIAN_POINT ( 'NONE',  ( -25.00000000000000000, 0.000000000000000000, 10.00000000000000000 ) ) ;
#2 = DIRECTION ( 'NONE',  ( -0.000000000000000000, -0.000000000000000000, 1.000000000000000000 ) ) ;
#3 = CARTESIAN_POINT ( 'NONE',  ( 0.000000000000000000, -25.00000000000000000, 10.00000000000000000 ) ) ;
#4 = DIRECTION ( 'NONE',  ( 1.000000000000000000, 0.000000000000000000, 0.000000000000000000 ) ) ;
#5 = FACE_OUTER_BOUND ( 'NONE', #52, .T. ) ;
#6 = PERSON_AND_ORGANIZATION_ROLE ( 'classification_officer' ) ;
#7 = DIRECTION ( 'NONE',  ( -1.000000000000000000, 0.000000000000000000, 0.000000000000000000 ) ) ;
#8 = CC_DESIGN_PERSON_AND_ORGANIZATION_ASSIGNMENT ( #364, #9, ( #207 ) ) ;
#9 = PERSON_AND_ORGANIZATION_ROLE ( 'design_owner' ) ;
#10 = CC_DESIGN_DATE_AND_TIME_ASSIGNMENT ( #177, #411, ( #83 ) ) ;
#11 = PRODUCT_DEFINITION_FORMATION_WITH_SPECIFIED_SOURCE ( 'ANY', '', #207, .NOT_KNOWN. ) ;
#12 = CARTESIAN_POINT ( 'NONE',  ( -12.50000000000000000, 1.530808498934191521E-15, 0.000000000000000000 ) ) ;
#13 = ADVANCED_FACE ( 'NONE', ( #51, #347, #179 ), #313, .F. ) ;
#14 = AXIS2_PLACEMENT_3D ( 'NONE', #132, #2, #4 ) ;
#15 = DIRECTION ( 'NONE',  ( -0.000000000000000000, -0.000000000000000000, -1.000000000000000000 ) ) ;
#16 = ORIENTED_EDGE ( 'NONE', *, *, #282, .F. ) ;
#17 = DIRECTION ( 'NONE',  ( 0.000000000000000000, 0.000000000000000000, 1.000000000000000000 ) ) ;
#18 = EDGE_LOOP ( 'NONE', ( #213, #412, #260, #194 ) ) ;
#19 = AXIS2_PLACEMENT_3D ( 'NONE', #102, #351, #226 ) ;
#20 = ORIENTED_EDGE ( 'NONE', *, *, #66, .F. ) ;
#21 = ORIENTED_EDGE ( 'NONE', *, *, #384, .T. ) ;
#22 = CYLINDRICAL_SURFACE ( 'NONE', #289, 25.00000000000000000 ) ;
#23 = VECTOR ( 'NONE', #328, 1000.000000000000000 ) ;
#24 = LOCAL_TIME ( 9, 46, 53.00000000000000000, #77 ) ;
#25 = DIRECTION ( 'NONE',  ( 0.000000000000000000, 0.000000000000000000, 1.000000000000000000 ) ) ;
#26 = CARTESIAN_POINT ( 'NONE',  ( 0.000000000000000000, 25.00000000000000000, 0.000000000000000000 ) ) ;
#27 = ORIENTED_EDGE ( 'NONE', *, *, #225, .T. ) ;
#28 = ORIENTED_EDGE ( 'NONE', *, *, #195, .F. ) ;
#29 = AXIS2_PLACEMENT_3D ( 'NONE', #400, #72, #237 ) ;
#30 = DIRECTION ( 'NONE',  ( -1.000000000000000000, 0.000000000000000000, 0.000000000000000000 ) ) ;
#31 = CC_DESIGN_PERSON_AND_ORGANIZATION_ASSIGNMENT ( #300, #6, ( #83 ) ) ;
#32 = CARTESIAN_POINT ( 'NONE',  ( 170.0000000000000000, 0.000000000000000000, 10.00000000000000000 ) ) ;
#33 = CARTESIAN_POINT ( 'NONE',  ( 170.0000000000000000, -12.50000000000000355, 10.00000000000000000 ) ) ;
#34 = CARTESIAN_POINT ( 'NONE',  ( 12.50000000000000000, 0.000000000000000000, 0.000000000000000000 ) ) ;
#35 = CARTESIAN_POINT ( 'NONE',  ( 170.0000000000000000, 0.000000000000000000, 0.000000000000000000 ) ) ;
#36 = LINE ( 'NONE', #185, #418 ) ;
#37 = MECHANICAL_CONTEXT ( 'NONE', #180, 'mechanical' ) ;
#38 = DIRECTION ( 'NONE',  ( -0.000000000000000000, -0.000000000000000000, -1.000000000000000000 ) ) ;
#39 = ADVANCED_FACE ( 'NONE', ( #174 ), #310, .T. ) ;
#40 = DATE_AND_TIME ( #235, #197 ) ;
#41 = AXIS2_PLACEMENT_3D ( 'NONE', #419, #165, #134 ) ;
#42 = DIRECTION ( 'NONE',  ( -0.000000000000000000, -0.000000000000000000, -1.000000000000000000 ) ) ;
#43 = EDGE_CURVE ( 'NONE', #175, #240, #156, .T. ) ;
#44 = VECTOR ( 'NONE', #128, 1000.000000000000000 ) ;
#45 = DIRECTION ( 'NONE',  ( -0.07333144303605410030, 0.9973076252903363415, 0.000000000000000000 ) ) ;
#46 = APPROVAL_PERSON_ORGANIZATION ( #214, #371, #91 ) ;
#47 = CARTESIAN_POINT ( 'NONE',  ( 0.000000000000000000, 0.000000000000000000, 0.000000000000000000 ) ) ;
#48 = ORIENTED_EDGE ( 'NONE', *, *, #212, .T. ) ;
#49 = VERTEX_POINT ( 'NONE', #211 ) ;
#50 = VECTOR ( 'NONE', #266, 1000.000000000000000 ) ;
#51 = FACE_BOUND ( 'NONE', #343, .T. ) ;
#52 = EDGE_LOOP ( 'NONE', ( #58, #373, #219, #121 ) ) ;
#53 = EDGE_CURVE ( 'NONE', #60, #119, #395, .T. ) ;
#54 = CYLINDRICAL_SURFACE ( 'NONE', #141, 12.50000000000000000 ) ;
#55 = ORIENTED_EDGE ( 'NONE', *, *, #424, .F. ) ;
#56 = CARTESIAN_POINT ( 'NONE',  ( 0.000000000000000000, 25.00000000000000000, 10.00000000000000000 ) ) ;
#57 = DIRECTION ( 'NONE',  ( 0.000000000000000000, 0.000000000000000000, 1.000000000000000000 ) ) ;
#58 = ORIENTED_EDGE ( 'NONE', *, *, #53, .F. ) ;
#59 = APPROVAL ( #239, 'UNSPECIFIED' ) ;
#60 = VERTEX_POINT ( 'NONE', #410 ) ;
#61 = DIRECTION ( 'NONE',  ( 1.000000000000000000, 0.000000000000000000, 0.000000000000000000 ) ) ;
#62 = ORIENTED_EDGE ( 'NONE', *, *, #216, .F. ) ;
#63 = ORIENTED_EDGE ( 'NONE', *, *, #399, .T. ) ;
#64 = DIRECTION ( 'NONE',  ( 0.000000000000000000, 0.000000000000000000, 1.000000000000000000 ) ) ;
#65 = CYLINDRICAL_SURFACE ( 'NONE', #402, 25.00000000000000000 ) ;
#66 = EDGE_CURVE ( 'NONE', #92, #320, #243, .T. ) ;
#67 = AXIS2_PLACEMENT_3D ( 'NONE', #176, #275, #84 ) ;
#68 =( GEOMETRIC_REPRESENTATION_CONTEXT ( 3 ) GLOBAL_UNCERTAINTY_ASSIGNED_CONTEXT ( ( #114 ) ) GLOBAL_UNIT_ASSIGNED_CONTEXT ( ( #144, #208, #204 ) ) REPRESENTATION_CONTEXT ( 'NONE', 'WORKASPACE' ) );
#69 = PLANE ( 'NONE',  #312 ) ;
#70 = CARTESIAN_POINT ( 'NONE',  ( 170.0000000000000000, 0.000000000000000000, 10.00000000000000000 ) ) ;
#71 = CC_DESIGN_SECURITY_CLASSIFICATION ( #83, ( #11 ) ) ;
#72 = DIRECTION ( 'NONE',  ( -0.000000000000000000, -0.000000000000000000, 1.000000000000000000 ) ) ;
#73 = PERSON_AND_ORGANIZATION ( #325, #369 ) ;
#74 = AXIS2_PLACEMENT_3D ( 'NONE', #94, #159, #169 ) ;
#75 = LINE ( 'NONE', #167, #322 ) ;
#76 = COORDINATED_UNIVERSAL_TIME_OFFSET ( 0, 0, .AHEAD. ) ;
#77 = COORDINATED_UNIVERSAL_TIME_OFFSET ( 0, 0, .AHEAD. ) ;
#78 = ADVANCED_FACE ( 'NONE', ( #138 ), #22, .T. ) ;
#79 = CIRCLE ( 'NONE', #19, 25.00000000000000000 ) ;
#80 = PERSON_AND_ORGANIZATION_ROLE ( 'design_supplier' ) ;
#81 = DIRECTION ( 'NONE',  ( -0.9973076252903363415, -0.07333144303605410030, 0.000000000000000000 ) ) ;
#82 = DESIGN_CONTEXT ( 'detailed design', #389, 'design' ) ;
#83 = SECURITY_CLASSIFICATION ( '', '', #170 ) ;
#84 = DIRECTION ( 'NONE',  ( 1.000000000000000000, 0.000000000000000000, 0.000000000000000000 ) ) ;
#85 = ORIENTED_EDGE ( 'NONE', *, *, #66, .T. ) ;
#86 = ORIENTED_EDGE ( 'NONE', *, *, #314, .F. ) ;
#87 = CC_DESIGN_PERSON_AND_ORGANIZATION_ASSIGNMENT ( #271, #80, ( #11 ) ) ;
#88 = ORIENTED_EDGE ( 'NONE', *, *, #143, .F. ) ;
#89 = EDGE_LOOP ( 'NONE', ( #55, #117, #192, #21 ) ) ;
#90 = ADVANCED_FACE ( 'NONE', ( #140 ), #401, .F. ) ;
#91 = APPROVAL_ROLE ( '' ) ;
#92 = VERTEX_POINT ( 'NONE', #264 ) ;
#93 = VERTEX_POINT ( 'NONE', #231 ) ;
#94 = CARTESIAN_POINT ( 'NONE',  ( 170.0000000000000000, 0.000000000000000000, 0.000000000000000000 ) ) ;
#95 = CARTESIAN_POINT ( 'NONE',  ( 0.000000000000000000, 25.00000000000000000, 10.00000000000000000 ) ) ;
#96 = EDGE_LOOP ( 'NONE', ( #191, #278, #129, #382 ) ) ;
#97 = CARTESIAN_POINT ( 'NONE',  ( 0.000000000000000000, 25.00000000000000000, 10.00000000000000000 ) ) ;
#98 = CARTESIAN_POINT ( 'NONE',  ( 0.000000000000000000, 0.000000000000000000, 10.00000000000000000 ) ) ;
#99 = AXIS2_PLACEMENT_3D ( 'NONE', #298, #301, #101 ) ;
#100 = CARTESIAN_POINT ( 'NONE',  ( 170.0000000000000000, -12.50000000000000355, 10.00000000000000000 ) ) ;
#101 = DIRECTION ( 'NONE',  ( 1.000000000000000000, 0.000000000000000000, 0.000000000000000000 ) ) ;
#102 = CARTESIAN_POINT ( 'NONE',  ( 0.000000000000000000, 0.000000000000000000, 0.000000000000000000 ) ) ;
#103 = CC_DESIGN_APPROVAL ( #299, ( #107 ) ) ;
#104 = FACE_OUTER_BOUND ( 'NONE', #96, .T. ) ;
#105 = APPROVAL_ROLE ( '' ) ;
#106 = LOCAL_TIME ( 9, 46, 53.00000000000000000, #408 ) ;
#107 = PRODUCT_DEFINITION ( 'UNKNOWN', '', #11, #82 ) ;
#108 = DIRECTION ( 'NONE',  ( 0.9973076252903363415, -0.07333144303605410030, 0.000000000000000000 ) ) ;
#109 = PERSON_AND_ORGANIZATION ( #325, #369 ) ;
#110 = CC_DESIGN_DATE_AND_TIME_ASSIGNMENT ( #302, #113, ( #107 ) ) ;
#111 = CARTESIAN_POINT ( 'NONE',  ( 0.000000000000000000, 0.000000000000000000, 10.00000000000000000 ) ) ;
#112 = DIRECTION ( 'NONE',  ( 0.000000000000000000, 0.000000000000000000, 1.000000000000000000 ) ) ;
#113 = DATE_TIME_ROLE ( 'creation_date' ) ;
#114 = UNCERTAINTY_MEASURE_WITH_UNIT (LENGTH_MEASURE( 1.000000000000000082E-05 ), #144, 'distance_accuracy_value', 'NONE');
#115 = COORDINATED_UNIVERSAL_TIME_OFFSET ( 0, 0, .AHEAD. ) ;
#116 = EDGE_LOOP ( 'NONE', ( #409, #222 ) ) ;
#117 = ORIENTED_EDGE ( 'NONE', *, *, #236, .F. ) ;
#118 = LINE ( 'NONE', #390, #404 ) ;
#119 = VERTEX_POINT ( 'NONE', #34 ) ;
#120 = ADVANCED_FACE ( 'NONE', ( #5 ), #54, .F. ) ;
#121 = ORIENTED_EDGE ( 'NONE', *, *, #166, .F. ) ;
#122 = ORIENTED_EDGE ( 'NONE', *, *, #209, .T. ) ;
#123 = DIRECTION ( 'NONE',  ( -0.07333144303605410030, -0.9973076252903363415, 0.000000000000000000 ) ) ;
#124 = CIRCLE ( 'NONE', #378, 25.00000000000000000 ) ;
#125 = ORIENTED_EDGE ( 'NONE', *, *, #236, .T. ) ;
#126 = DIRECTION ( 'NONE',  ( 0.000000000000000000, 0.000000000000000000, 1.000000000000000000 ) ) ;
#127 = ORIENTED_EDGE ( 'NONE', *, *, #212, .F. ) ;
#128 = DIRECTION ( 'NONE',  ( -0.000000000000000000, -0.000000000000000000, -1.000000000000000000 ) ) ;
#129 = ORIENTED_EDGE ( 'NONE', *, *, #195, .T. ) ;
#130 = CIRCLE ( 'NONE', #293, 6.250000000000005329 ) ;
#131 = EDGE_LOOP ( 'NONE', ( #420, #178 ) ) ;
#132 = CARTESIAN_POINT ( 'NONE',  ( 0.000000000000000000, 0.000000000000000000, 0.000000000000000000 ) ) ;
#133 = CARTESIAN_POINT ( 'NONE',  ( 0.000000000000000000, 0.000000000000000000, 0.000000000000000000 ) ) ;
#134 = DIRECTION ( 'NONE',  ( 1.000000000000000000, 0.000000000000000000, 0.000000000000000000 ) ) ;
#135 = DIRECTION ( 'NONE',  ( -0.000000000000000000, -0.000000000000000000, -1.000000000000000000 ) ) ;
#136 = CARTESIAN_POINT ( 'NONE',  ( -25.00000000000000000, 0.000000000000000000, 10.00000000000000000 ) ) ;
#137 = VECTOR ( 'NONE', #365, 1000.000000000000000 ) ;
#138 = FACE_OUTER_BOUND ( 'NONE', #18, .T. ) ;
#139 = APPLICATION_PROTOCOL_DEFINITION ( 'international standard', 'config_control_design', 1994, #180 ) ;
#140 = FACE_OUTER_BOUND ( 'NONE', #326, .T. ) ;
#141 = AXIS2_PLACEMENT_3D ( 'NONE', #272, #220, #270 ) ;
#142 = APPROVAL_PERSON_ORGANIZATION ( #109, #299, #273 ) ;
#143 = EDGE_CURVE ( 'NONE', #285, #153, #75, .T. ) ;
#144 =( LENGTH_UNIT ( ) NAMED_UNIT ( * ) SI_UNIT ( .MILLI., .METRE. ) );
#145 = VECTOR ( 'NONE', #160, 1000.000000000000000 ) ;
#146 = DIRECTION ( 'NONE',  ( -1.000000000000000000, 0.000000000000000000, 0.000000000000000000 ) ) ;
#147 = VERTEX_POINT ( 'NONE', #181 ) ;
#148 = DIRECTION ( 'NONE',  ( 1.000000000000000000, 0.000000000000000000, 0.000000000000000000 ) ) ;
#149 = CIRCLE ( 'NONE', #41, 12.50000000000000000 ) ;
#150 = EDGE_CURVE ( 'NONE', #92, #255, #355, .T. ) ;
#151 = ORIENTED_EDGE ( 'NONE', *, *, #362, .T. ) ;
#152 = ORIENTED_EDGE ( 'NONE', *, *, #254, .T. ) ;
#153 = VERTEX_POINT ( 'NONE', #198 ) ;
#154 = ORIENTED_EDGE ( 'NONE', *, *, #288, .F. ) ;
#155 = ADVANCED_FACE ( 'NONE', ( #330 ), #69, .F. ) ;
#156 = CIRCLE ( 'NONE', #67, 12.50000000000000000 ) ;
#157 = LOCAL_TIME ( 9, 46, 53.00000000000000000, #115 ) ;
#158 = CARTESIAN_POINT ( 'NONE',  ( -12.50000000000000000, 1.530808498934191521E-15, 10.00000000000000000 ) ) ;
#159 = DIRECTION ( 'NONE',  ( -0.000000000000000000, -0.000000000000000000, 1.000000000000000000 ) ) ;
#160 = DIRECTION ( 'NONE',  ( -0.9973076252903363415, 0.07333144303605411418, -0.000000000000000000 ) ) ;
#161 = EDGE_LOOP ( 'NONE', ( #323, #247 ) ) ;
#162 = CARTESIAN_POINT ( 'NONE',  ( 0.000000000000000000, -25.00000000000000000, 0.000000000000000000 ) ) ;
#163 = DIRECTION ( 'NONE',  ( 0.000000000000000000, 0.000000000000000000, 1.000000000000000000 ) ) ;
#164 = AXIS2_PLACEMENT_3D ( 'NONE', #253, #64, #381 ) ;
#165 = DIRECTION ( 'NONE',  ( 0.000000000000000000, 0.000000000000000000, 1.000000000000000000 ) ) ;
#166 = EDGE_CURVE ( 'NONE', #119, #240, #228, .T. ) ;
#167 = CARTESIAN_POINT ( 'NONE',  ( 0.000000000000000000, 25.00000000000000000, 10.00000000000000000 ) ) ;
#168 = DIRECTION ( 'NONE',  ( 1.000000000000000000, 0.000000000000000000, 0.000000000000000000 ) ) ;
#169 = DIRECTION ( 'NONE',  ( 1.000000000000000000, 0.000000000000000000, 0.000000000000000000 ) ) ;
#170 = SECURITY_CLASSIFICATION_LEVEL ( 'unclassified' ) ;
#171 = DIRECTION ( 'NONE',  ( -0.000000000000000000, -0.000000000000000000, -1.000000000000000000 ) ) ;
#172 = LINE ( 'NONE', #12, #137 ) ;
#173 = APPROVAL_STATUS ( 'not_yet_approved' ) ;
#174 = FACE_OUTER_BOUND ( 'NONE', #352, .T. ) ;
#175 = VERTEX_POINT ( 'NONE', #158 ) ;
#176 = CARTESIAN_POINT ( 'NONE',  ( 0.000000000000000000, 0.000000000000000000, 10.00000000000000000 ) ) ;
#177 = DATE_AND_TIME ( #413, #248 ) ;
#178 = ORIENTED_EDGE ( 'NONE', *, *, #282, .T. ) ;
#179 = FACE_OUTER_BOUND ( 'NONE', #422, .T. ) ;
#180 = APPLICATION_CONTEXT ( 'configuration controlled 3d designs of mechanical parts and assemblies' ) ;
#181 = CARTESIAN_POINT ( 'NONE',  ( 163.7500000000000000, 7.654042494670955634E-16, 10.00000000000000000 ) ) ;
#182 = DIRECTION ( 'NONE',  ( 1.000000000000000000, 0.000000000000000000, 0.000000000000000000 ) ) ;
#183 = VERTEX_POINT ( 'NONE', #392 ) ;
#184 = CLOSED_SHELL ( 'NONE', ( #120, #90, #78, #319, #414, #39, #155, #189, #13, #200, #251 ) ) ;
#185 = CARTESIAN_POINT ( 'NONE',  ( 176.2500000000000284, 0.000000000000000000, 0.000000000000000000 ) ) ;
#186 = LINE ( 'NONE', #26, #145 ) ;
#187 = VERTEX_POINT ( 'NONE', #1 ) ;
#188 = EDGE_LOOP ( 'NONE', ( #379, #250, #20, #415 ) ) ;
#189 = ADVANCED_FACE ( 'NONE', ( #359, #267, #363 ), #417, .T. ) ;
#190 = CARTESIAN_POINT ( 'NONE',  ( 0.000000000000000000, 0.000000000000000000, 10.00000000000000000 ) ) ;
#191 = ORIENTED_EDGE ( 'NONE', *, *, #209, .F. ) ;
#192 = ORIENTED_EDGE ( 'NONE', *, *, #166, .T. ) ;
#193 = FACE_OUTER_BOUND ( 'NONE', #258, .T. ) ;
#194 = ORIENTED_EDGE ( 'NONE', *, *, #150, .F. ) ;
#195 = EDGE_CURVE ( 'NONE', #346, #265, #36, .T. ) ;
#196 = FACE_OUTER_BOUND ( 'NONE', #89, .T. ) ;
#197 = LOCAL_TIME ( 9, 46, 53.00000000000000000, #76 ) ;
#198 = CARTESIAN_POINT ( 'NONE',  ( 0.000000000000000000, 25.00000000000000000, 0.000000000000000000 ) ) ;
#199 = CARTESIAN_POINT ( 'NONE',  ( 176.2500000000000284, 0.000000000000000000, 10.00000000000000000 ) ) ;
#200 = ADVANCED_FACE ( 'NONE', ( #104 ), #380, .F. ) ;
#201 = CARTESIAN_POINT ( 'NONE',  ( 0.000000000000000000, -25.00000000000000000, 10.00000000000000000 ) ) ;
#202 = PERSON_AND_ORGANIZATION_ROLE ( 'creator' ) ;
#203 = DIRECTION ( 'NONE',  ( -0.000000000000000000, -0.000000000000000000, 1.000000000000000000 ) ) ;
#204 =( NAMED_UNIT ( * ) SI_UNIT ( $, .STERADIAN. ) SOLID_ANGLE_UNIT ( ) );
#205 = APPLICATION_PROTOCOL_DEFINITION ( 'international standard', 'config_control_design', 1994, #389 ) ;
#206 = CARTESIAN_POINT ( 'NONE',  ( 0.000000000000000000, -25.00000000000000000, 10.00000000000000000 ) ) ;
#207 = PRODUCT ( 'bike crank', 'bike crank', '', ( #37 ) ) ;
#208 =( NAMED_UNIT ( * ) PLANE_ANGLE_UNIT ( ) SI_UNIT ( $, .RADIAN. ) );
#209 = EDGE_CURVE ( 'NONE', #93, #147, #332, .T. ) ;
#210 = AXIS2_PLACEMENT_3D ( 'NONE', #98, #259, #324 ) ;
#211 = CARTESIAN_POINT ( 'NONE',  ( -25.00000000000000000, 0.000000000000000000, 0.000000000000000000 ) ) ;
#212 = EDGE_CURVE ( 'NONE', #280, #218, #234, .T. ) ;
#213 = ORIENTED_EDGE ( 'NONE', *, *, #329, .F. ) ;
#214 = PERSON_AND_ORGANIZATION ( #325, #369 ) ;
#215 = EDGE_LOOP ( 'NONE', ( #242, #88, #291, #386 ) ) ;
#216 = EDGE_CURVE ( 'NONE', #49, #255, #334, .T. ) ;
#217 = ORIENTED_EDGE ( 'NONE', *, *, #245, .F. ) ;
#218 = VERTEX_POINT ( 'NONE', #393 ) ;
#219 = ORIENTED_EDGE ( 'NONE', *, *, #43, .T. ) ;
#220 = DIRECTION ( 'NONE',  ( -0.000000000000000000, -0.000000000000000000, 1.000000000000000000 ) ) ;
#221 = CARTESIAN_POINT ( 'NONE',  ( 12.50000000000000000, 0.000000000000000000, 10.00000000000000000 ) ) ;
#222 = ORIENTED_EDGE ( 'NONE', *, *, #399, .F. ) ;
#223 = CC_DESIGN_PERSON_AND_ORGANIZATION_ASSIGNMENT ( #335, #333, ( #107 ) ) ;
#224 = DIRECTION ( 'NONE',  ( 0.000000000000000000, 0.000000000000000000, 1.000000000000000000 ) ) ;
#225 = EDGE_CURVE ( 'NONE', #153, #49, #79, .T. ) ;
#226 = DIRECTION ( 'NONE',  ( 1.000000000000000000, 0.000000000000000000, 0.000000000000000000 ) ) ;
#227 = DIRECTION ( 'NONE',  ( -0.000000000000000000, -0.000000000000000000, -1.000000000000000000 ) ) ;
#228 = LINE ( 'NONE', #283, #372 ) ;
#229 = DIRECTION ( 'NONE',  ( 0.000000000000000000, 0.000000000000000000, 1.000000000000000000 ) ) ;
#230 = AXIS2_PLACEMENT_3D ( 'NONE', #47, #368, #317 ) ;
#231 = CARTESIAN_POINT ( 'NONE',  ( 163.7500000000000000, 7.654042494670955634E-16, 0.000000000000000000 ) ) ;
#232 = DATE_AND_TIME ( #366, #157 ) ;
#233 = DIRECTION ( 'NONE',  ( -0.000000000000000000, -0.000000000000000000, 1.000000000000000000 ) ) ;
#234 = CIRCLE ( 'NONE', #99, 12.50000000000001066 ) ;
#235 = CALENDAR_DATE ( 2026, 22, 4 ) ;
#236 = EDGE_CURVE ( 'NONE', #119, #60, #149, .T. ) ;
#237 = DIRECTION ( 'NONE',  ( 1.000000000000000000, 0.000000000000000000, 0.000000000000000000 ) ) ;
#238 = LINE ( 'NONE', #136, #416 ) ;
#239 = APPROVAL_STATUS ( 'not_yet_approved' ) ;
#240 = VERTEX_POINT ( 'NONE', #221 ) ;
#241 = EDGE_CURVE ( 'NONE', #265, #147, #279, .T. ) ;
#242 = ORIENTED_EDGE ( 'NONE', *, *, #308, .T. ) ;
#243 = LINE ( 'NONE', #201, #23 ) ;
#244 = AXIS2_PLACEMENT_3D ( 'NONE', #252, #25, #394 ) ;
#245 = EDGE_CURVE ( 'NONE', #255, #280, #296, .T. ) ;
#246 = ADVANCED_BREP_SHAPE_REPRESENTATION ( 'bike crank', ( #391, #357 ), #68 ) ;
#247 = ORIENTED_EDGE ( 'NONE', *, *, #43, .F. ) ;
#248 = LOCAL_TIME ( 9, 46, 53.00000000000000000, #367 ) ;
#249 = APPROVAL_DATE_TIME ( #374, #371 ) ;
#250 = ORIENTED_EDGE ( 'NONE', *, *, #362, .F. ) ;
#251 = ADVANCED_FACE ( 'NONE', ( #196 ), #256, .F. ) ;
#252 = CARTESIAN_POINT ( 'NONE',  ( 0.000000000000000000, 0.000000000000000000, 10.00000000000000000 ) ) ;
#253 = CARTESIAN_POINT ( 'NONE',  ( 170.0000000000000000, 0.000000000000000000, 0.000000000000000000 ) ) ;
#254 = EDGE_CURVE ( 'NONE', #183, #285, #383, .T. ) ;
#255 = VERTEX_POINT ( 'NONE', #358 ) ;
#256 = CYLINDRICAL_SURFACE ( 'NONE', #14, 12.50000000000000000 ) ;
#257 = CC_DESIGN_PERSON_AND_ORGANIZATION_ASSIGNMENT ( #73, #202, ( #11 ) ) ;
#258 = EDGE_LOOP ( 'NONE', ( #348, #86, #345, #27 ) ) ;
#259 = DIRECTION ( 'NONE',  ( 0.000000000000000000, 0.000000000000000000, 1.000000000000000000 ) ) ;
#260 = ORIENTED_EDGE ( 'NONE', *, *, #216, .T. ) ;
#261 = AXIS2_PLACEMENT_3D ( 'NONE', #292, #385, #290 ) ;
#262 = VECTOR ( 'NONE', #297, 1000.000000000000000 ) ;
#263 = DIRECTION ( 'NONE',  ( 1.000000000000000000, 0.000000000000000000, 0.000000000000000000 ) ) ;
#264 = CARTESIAN_POINT ( 'NONE',  ( 0.000000000000000000, -25.00000000000000000, 10.00000000000000000 ) ) ;
#265 = VERTEX_POINT ( 'NONE', #199 ) ;
#266 = DIRECTION ( 'NONE',  ( -0.9973076252903363415, 0.07333144303605411418, -0.000000000000000000 ) ) ;
#267 = FACE_BOUND ( 'NONE', #116, .T. ) ;
#268 = CALENDAR_DATE ( 2026, 22, 4 ) ;
#269 = CC_DESIGN_APPROVAL ( #59, ( #11 ) ) ;
#270 = DIRECTION ( 'NONE',  ( 1.000000000000000000, 0.000000000000000000, 0.000000000000000000 ) ) ;
#271 = PERSON_AND_ORGANIZATION ( #325, #369 ) ;
#272 = CARTESIAN_POINT ( 'NONE',  ( 0.000000000000000000, 0.000000000000000000, 0.000000000000000000 ) ) ;
#273 = APPROVAL_ROLE ( '' ) ;
#274 = EDGE_CURVE ( 'NONE', #346, #93, #130, .T. ) ;
#275 = DIRECTION ( 'NONE',  ( 0.000000000000000000, 0.000000000000000000, 1.000000000000000000 ) ) ;
#276 = ORIENTED_EDGE ( 'NONE', *, *, #53, .T. ) ;
#277 = SHAPE_DEFINITION_REPRESENTATION ( #309, #246 ) ;
#278 = ORIENTED_EDGE ( 'NONE', *, *, #274, .F. ) ;
#279 = CIRCLE ( 'NONE', #387, 6.250000000000005329 ) ;
#280 = VERTEX_POINT ( 'NONE', #353 ) ;
#281 = ORIENTED_EDGE ( 'NONE', *, *, #308, .F. ) ;
#282 = EDGE_CURVE ( 'NONE', #93, #346, #344, .T. ) ;
#283 = CARTESIAN_POINT ( 'NONE',  ( 12.50000000000000000, 0.000000000000000000, 0.000000000000000000 ) ) ;
#284 = CC_DESIGN_APPROVAL ( #371, ( #83 ) ) ;
#285 = VERTEX_POINT ( 'NONE', #95 ) ;
#286 = ORIENTED_EDGE ( 'NONE', *, *, #329, .T. ) ;
#287 = CARTESIAN_POINT ( 'NONE',  ( 0.000000000000000000, 0.000000000000000000, 10.00000000000000000 ) ) ;
#288 = EDGE_CURVE ( 'NONE', #183, #218, #118, .T. ) ;
#289 = AXIS2_PLACEMENT_3D ( 'NONE', #111, #171, #7 ) ;
#290 = DIRECTION ( 'NONE',  ( 1.000000000000000000, 0.000000000000000000, 0.000000000000000000 ) ) ;
#291 = ORIENTED_EDGE ( 'NONE', *, *, #254, .F. ) ;
#292 = CARTESIAN_POINT ( 'NONE',  ( 0.000000000000000000, 0.000000000000000000, 10.00000000000000000 ) ) ;
#293 = AXIS2_PLACEMENT_3D ( 'NONE', #35, #126, #327 ) ;
#294 = EDGE_CURVE ( 'NONE', #320, #183, #376, .T. ) ;
#295 = DIRECTION ( 'NONE',  ( -0.000000000000000000, -0.000000000000000000, 1.000000000000000000 ) ) ;
#296 = LINE ( 'NONE', #162, #262 ) ;
#297 = DIRECTION ( 'NONE',  ( 0.9973076252903363415, 0.07333144303605411418, 0.000000000000000000 ) ) ;
#298 = CARTESIAN_POINT ( 'NONE',  ( 170.0000000000000000, 0.000000000000000000, 0.000000000000000000 ) ) ;
#299 = APPROVAL ( #173, 'UNSPECIFIED' ) ;
#300 = PERSON_AND_ORGANIZATION ( #325, #369 ) ;
#301 = DIRECTION ( 'NONE',  ( 0.000000000000000000, 0.000000000000000000, 1.000000000000000000 ) ) ;
#302 = DATE_AND_TIME ( #268, #24 ) ;
#303 = VECTOR ( 'NONE', #295, 1000.000000000000000 ) ;
#304 = CIRCLE ( 'NONE', #261, 25.00000000000000000 ) ;
#305 = FACE_OUTER_BOUND ( 'NONE', #188, .T. ) ;
#306 = AXIS2_PLACEMENT_3D ( 'NONE', #315, #17, #148 ) ;
#307 = CIRCLE ( 'NONE', #210, 12.50000000000000000 ) ;
#308 = EDGE_CURVE ( 'NONE', #218, #153, #186, .T. ) ;
#309 = PRODUCT_DEFINITION_SHAPE ( 'NONE', 'NONE',  #107 ) ;
#310 = CYLINDRICAL_SURFACE ( 'NONE', #337, 12.50000000000001066 ) ;
#311 = AXIS2_PLACEMENT_3D ( 'NONE', #350, #57, #263 ) ;
#312 = AXIS2_PLACEMENT_3D ( 'NONE', #56, #123, #108 ) ;
#313 = PLANE ( 'NONE',  #230 ) ;
#314 = EDGE_CURVE ( 'NONE', #285, #187, #124, .T. ) ;
#315 = CARTESIAN_POINT ( 'NONE',  ( 0.000000000000000000, 0.000000000000000000, 0.000000000000000000 ) ) ;
#316 = AXIS2_PLACEMENT_3D ( 'NONE', #133, #407, #182 ) ;
#317 = DIRECTION ( 'NONE',  ( 1.000000000000000000, 0.000000000000000000, -0.000000000000000000 ) ) ;
#318 = AXIS2_PLACEMENT_3D ( 'NONE', #206, #45, #81 ) ;
#319 = ADVANCED_FACE ( 'NONE', ( #193 ), #65, .T. ) ;
#320 = VERTEX_POINT ( 'NONE', #100 ) ;
#321 = DIRECTION ( 'NONE',  ( -0.000000000000000000, -0.000000000000000000, -1.000000000000000000 ) ) ;
#322 = VECTOR ( 'NONE', #135, 1000.000000000000000 ) ;
#323 = ORIENTED_EDGE ( 'NONE', *, *, #384, .F. ) ;
#324 = DIRECTION ( 'NONE',  ( 1.000000000000000000, 0.000000000000000000, 0.000000000000000000 ) ) ;
#325 = PERSON ( 'UNSPECIFIED', 'UNSPECIFIED', 'UNSPECIFIED', ('UNSPECIFIED'), ('UNSPECIFIED'), ('UNSPECIFIED') ) ;
#326 = EDGE_LOOP ( 'NONE', ( #16, #122, #63, #28 ) ) ;
#327 = DIRECTION ( 'NONE',  ( 1.000000000000000000, 0.000000000000000000, 0.000000000000000000 ) ) ;
#328 = DIRECTION ( 'NONE',  ( 0.9973076252903363415, 0.07333144303605411418, 0.000000000000000000 ) ) ;
#329 = EDGE_CURVE ( 'NONE', #187, #92, #304, .T. ) ;
#330 = FACE_OUTER_BOUND ( 'NONE', #215, .T. ) ;
#331 = DIRECTION ( 'NONE',  ( 1.000000000000000000, 0.000000000000000000, 0.000000000000000000 ) ) ;
#332 = LINE ( 'NONE', #349, #303 ) ;
#333 = PERSON_AND_ORGANIZATION_ROLE ( 'creator' ) ;
#334 = CIRCLE ( 'NONE', #316, 25.00000000000000000 ) ;
#335 = PERSON_AND_ORGANIZATION ( #325, #369 ) ;
#336 = PLANE ( 'NONE',  #318 ) ;
#337 = AXIS2_PLACEMENT_3D ( 'NONE', #342, #15, #146 ) ;
#338 = AXIS2_PLACEMENT_3D ( 'NONE', #32, #163, #423 ) ;
#339 = APPROVAL_STATUS ( 'not_yet_approved' ) ;
#340 = ORIENTED_EDGE ( 'NONE', *, *, #225, .F. ) ;
#341 = CALENDAR_DATE ( 2026, 22, 4 ) ;
#342 = CARTESIAN_POINT ( 'NONE',  ( 170.0000000000000000, 0.000000000000000000, 10.00000000000000000 ) ) ;
#343 = EDGE_LOOP ( 'NONE', ( #125, #276 ) ) ;
#344 = CIRCLE ( 'NONE', #164, 6.250000000000005329 ) ;
#345 = ORIENTED_EDGE ( 'NONE', *, *, #143, .T. ) ;
#346 = VERTEX_POINT ( 'NONE', #421 ) ;
#347 = FACE_BOUND ( 'NONE', #131, .T. ) ;
#348 = ORIENTED_EDGE ( 'NONE', *, *, #406, .F. ) ;
#349 = CARTESIAN_POINT ( 'NONE',  ( 163.7500000000000000, 7.654042494670959579E-16, 0.000000000000000000 ) ) ;
#350 = CARTESIAN_POINT ( 'NONE',  ( 170.0000000000000000, 0.000000000000000000, 10.00000000000000000 ) ) ;
#351 = DIRECTION ( 'NONE',  ( 0.000000000000000000, 0.000000000000000000, 1.000000000000000000 ) ) ;
#352 = EDGE_LOOP ( 'NONE', ( #48, #154, #356, #151 ) ) ;
#353 = CARTESIAN_POINT ( 'NONE',  ( 170.0000000000000000, -12.50000000000000355, 0.000000000000000000 ) ) ;
#354 = LINE ( 'NONE', #33, #44 ) ;
#355 = LINE ( 'NONE', #3, #361 ) ;
#356 = ORIENTED_EDGE ( 'NONE', *, *, #294, .F. ) ;
#357 = AXIS2_PLACEMENT_3D ( 'NONE', #403, #112, #331 ) ;
#358 = CARTESIAN_POINT ( 'NONE',  ( 0.000000000000000000, -25.00000000000000000, 0.000000000000000000 ) ) ;
#359 = FACE_BOUND ( 'NONE', #161, .T. ) ;
#360 = APPROVAL_DATE_TIME ( #232, #59 ) ;
#361 = VECTOR ( 'NONE', #38, 1000.000000000000000 ) ;
#362 = EDGE_CURVE ( 'NONE', #320, #280, #354, .T. ) ;
#363 = FACE_OUTER_BOUND ( 'NONE', #388, .T. ) ;
#364 = PERSON_AND_ORGANIZATION ( #325, #369 ) ;
#365 = DIRECTION ( 'NONE',  ( -0.000000000000000000, -0.000000000000000000, 1.000000000000000000 ) ) ;
#366 = CALENDAR_DATE ( 2026, 22, 4 ) ;
#367 = COORDINATED_UNIVERSAL_TIME_OFFSET ( 0, 0, .AHEAD. ) ;
#368 = DIRECTION ( 'NONE',  ( 0.000000000000000000, 0.000000000000000000, 1.000000000000000000 ) ) ;
#369 = ORGANIZATION ( 'UNSPECIFIED', 'UNSPECIFIED', '' ) ;
#370 = ORIENTED_EDGE ( 'NONE', *, *, #294, .T. ) ;
#371 = APPROVAL ( #339, 'UNSPECIFIED' ) ;
#372 = VECTOR ( 'NONE', #233, 1000.000000000000000 ) ;
#373 = ORIENTED_EDGE ( 'NONE', *, *, #424, .T. ) ;
#374 = DATE_AND_TIME ( #341, #106 ) ;
#375 = CIRCLE ( 'NONE', #338, 6.250000000000005329 ) ;
#376 = CIRCLE ( 'NONE', #311, 12.50000000000001066 ) ;
#377 = ORIENTED_EDGE ( 'NONE', *, *, #314, .T. ) ;
#378 = AXIS2_PLACEMENT_3D ( 'NONE', #287, #224, #61 ) ;
#379 = ORIENTED_EDGE ( 'NONE', *, *, #245, .T. ) ;
#380 = CYLINDRICAL_SURFACE ( 'NONE', #74, 6.250000000000005329 ) ;
#381 = DIRECTION ( 'NONE',  ( 1.000000000000000000, 0.000000000000000000, 0.000000000000000000 ) ) ;
#382 = ORIENTED_EDGE ( 'NONE', *, *, #241, .T. ) ;
#383 = LINE ( 'NONE', #97, #50 ) ;
#384 = EDGE_CURVE ( 'NONE', #240, #175, #307, .T. ) ;
#385 = DIRECTION ( 'NONE',  ( 0.000000000000000000, 0.000000000000000000, 1.000000000000000000 ) ) ;
#386 = ORIENTED_EDGE ( 'NONE', *, *, #288, .T. ) ;
#387 = AXIS2_PLACEMENT_3D ( 'NONE', #70, #229, #168 ) ;
#388 = EDGE_LOOP ( 'NONE', ( #377, #286, #85, #370, #152 ) ) ;
#389 = APPLICATION_CONTEXT ( 'configuration controlled 3d designs of mechanical parts and assemblies' ) ;
#390 = CARTESIAN_POINT ( 'NONE',  ( 170.0000000000000000, 12.50000000000000355, 10.00000000000000000 ) ) ;
#391 = MANIFOLD_SOLID_BREP ( 'Cut-Extrude1', #184 ) ;
#392 = CARTESIAN_POINT ( 'NONE',  ( 170.0000000000000000, 12.50000000000000355, 10.00000000000000000 ) ) ;
#393 = CARTESIAN_POINT ( 'NONE',  ( 170.0000000000000000, 12.50000000000000355, 0.000000000000000000 ) ) ;
#394 = DIRECTION ( 'NONE',  ( 1.000000000000000000, 0.000000000000000000, -0.000000000000000000 ) ) ;
#395 = CIRCLE ( 'NONE', #306, 12.50000000000000000 ) ;
#396 = APPROVAL_PERSON_ORGANIZATION ( #397, #59, #105 ) ;
#397 = PERSON_AND_ORGANIZATION ( #325, #369 ) ;
#398 = PRODUCT_RELATED_PRODUCT_CATEGORY ( 'detail', '', ( #207 ) ) ;
#399 = EDGE_CURVE ( 'NONE', #147, #265, #375, .T. ) ;
#400 = CARTESIAN_POINT ( 'NONE',  ( 170.0000000000000000, 0.000000000000000000, 0.000000000000000000 ) ) ;
#401 = CYLINDRICAL_SURFACE ( 'NONE', #29, 6.250000000000005329 ) ;
#402 = AXIS2_PLACEMENT_3D ( 'NONE', #190, #321, #30 ) ;
#403 = CARTESIAN_POINT ( 'NONE',  ( 0.000000000000000000, 0.000000000000000000, 0.000000000000000000 ) ) ;
#404 = VECTOR ( 'NONE', #227, 1000.000000000000000 ) ;
#405 = APPROVAL_DATE_TIME ( #40, #299 ) ;
#406 = EDGE_CURVE ( 'NONE', #187, #49, #238, .T. ) ;
#407 = DIRECTION ( 'NONE',  ( 0.000000000000000000, 0.000000000000000000, 1.000000000000000000 ) ) ;
#408 = COORDINATED_UNIVERSAL_TIME_OFFSET ( 0, 0, .AHEAD. ) ;
#409 = ORIENTED_EDGE ( 'NONE', *, *, #241, .F. ) ;
#410 = CARTESIAN_POINT ( 'NONE',  ( -12.50000000000000000, 1.530808498934191521E-15, 0.000000000000000000 ) ) ;
#411 = DATE_TIME_ROLE ( 'classification_date' ) ;
#412 = ORIENTED_EDGE ( 'NONE', *, *, #406, .T. ) ;
#413 = CALENDAR_DATE ( 2026, 22, 4 ) ;
#414 = ADVANCED_FACE ( 'NONE', ( #305 ), #336, .F. ) ;
#415 = ORIENTED_EDGE ( 'NONE', *, *, #150, .T. ) ;
#416 = VECTOR ( 'NONE', #42, 1000.000000000000000 ) ;
#417 = PLANE ( 'NONE',  #244 ) ;
#418 = VECTOR ( 'NONE', #203, 1000.000000000000000 ) ;
#419 = CARTESIAN_POINT ( 'NONE',  ( 0.000000000000000000, 0.000000000000000000, 0.000000000000000000 ) ) ;
#420 = ORIENTED_EDGE ( 'NONE', *, *, #274, .T. ) ;
#421 = CARTESIAN_POINT ( 'NONE',  ( 176.2500000000000284, 0.000000000000000000, 0.000000000000000000 ) ) ;
#422 = EDGE_LOOP ( 'NONE', ( #340, #281, #127, #217, #62 ) ) ;
#423 = DIRECTION ( 'NONE',  ( 1.000000000000000000, 0.000000000000000000, 0.000000000000000000 ) ) ;
#424 = EDGE_CURVE ( 'NONE', #60, #175, #172, .T. ) ;
ENDSEC;
END-ISO-10303-21;
